<svg width="25" height="25" viewBox="0 0 25 25" fill="none" xmlns="http://www.w3.org/2000/svg">
<path d="M17.7083 3.47917C19.2794 4.38631 20.5864 5.68805 21.4998 7.25553C22.4132 8.823 22.9014 10.6019 22.916 12.416C22.9307 14.2301 22.4713 16.0166 21.5833 17.5986C20.6954 19.1807 19.4096 20.5034 17.8534 21.4358C16.2971 22.3682 14.5243 22.8779 12.7105 22.9147C10.8967 22.9514 9.10472 22.5137 7.51202 21.6451C5.91931 20.7764 4.5811 19.5068 3.62984 17.962C2.67859 16.4172 2.14728 14.6507 2.08852 12.8375L2.08331 12.5L2.08852 12.1625C2.14686 10.3635 2.67034 8.61038 3.60794 7.07396C4.54553 5.53753 5.86524 4.27027 7.43841 3.39572C9.01157 2.52116 10.7845 2.06917 12.5844 2.08379C14.3842 2.09842 16.1496 2.57917 17.7083 3.47917ZM15.8333 14.8813C15.636 14.6879 15.3701 14.5808 15.0938 14.5835C14.8176 14.5863 14.5538 14.6986 14.3604 14.8958C14.1179 15.1434 13.8285 15.3401 13.509 15.4743C13.1896 15.6086 12.8465 15.6778 12.5 15.6778C12.1535 15.6778 11.8104 15.6086 11.4909 15.4743C11.1715 15.3401 10.882 15.1434 10.6396 14.8958C10.4452 14.7032 10.1828 14.5947 9.9091 14.594C9.63541 14.5932 9.37242 14.7002 9.17699 14.8918C8.98155 15.0834 8.86938 15.3442 8.86471 15.6179C8.86005 15.8915 8.96327 16.156 9.15206 16.3542C9.5885 16.7995 10.1094 17.1533 10.6843 17.3949C11.2591 17.6364 11.8764 17.7608 12.5 17.7608C13.1235 17.7608 13.7408 17.6364 14.3157 17.3949C14.8906 17.1533 15.4115 16.7995 15.8479 16.3542C16.0413 16.1569 16.1483 15.8909 16.1456 15.6147C16.1429 15.3385 16.0305 15.0747 15.8333 14.8813ZM9.3854 9.37501L9.2531 9.3823C8.98946 9.41366 8.74774 9.5445 8.57734 9.7481C8.40693 9.95169 8.3207 10.2127 8.33626 10.4777C8.35182 10.7428 8.468 10.9919 8.66105 11.1741C8.85411 11.3564 9.10948 11.458 9.37498 11.4583L9.50727 11.451C9.77091 11.4197 10.0126 11.2888 10.183 11.0852C10.3534 10.8816 10.4397 10.6207 10.4241 10.3556C10.4086 10.0906 10.2924 9.84148 10.0993 9.65922C9.90626 9.47696 9.6509 9.3753 9.3854 9.37501ZM15.6354 9.37501L15.5031 9.3823C15.2395 9.41366 14.9977 9.5445 14.8273 9.7481C14.6569 9.95169 14.5707 10.2127 14.5863 10.4777C14.6018 10.7428 14.718 10.9919 14.9111 11.1741C15.1041 11.3564 15.3595 11.458 15.625 11.4583L15.7573 11.451C16.0209 11.4197 16.2626 11.2888 16.433 11.0852C16.6034 10.8816 16.6897 10.6207 16.6741 10.3556C16.6586 10.0906 16.5424 9.84148 16.3493 9.65922C16.1563 9.47696 15.9009 9.3753 15.6354 9.37501Z" fill="#BFB2F3"/>
</svg>
