<svg width="25" height="25" viewBox="0 0 25 25" fill="none" xmlns="http://www.w3.org/2000/svg">
<path d="M5.20833 21.875C4.63542 21.875 4.14514 21.6712 3.7375 21.2635C3.32986 20.8559 3.12569 20.3653 3.125 19.7917V5.20833C3.125 4.63542 3.32917 4.14514 3.7375 3.7375C4.14583 3.32986 4.63611 3.12569 5.20833 3.125H14.5833V8.33333H16.6667V10.4167H21.875V19.7917C21.875 20.3646 21.6712 20.8552 21.2635 21.2635C20.8559 21.6719 20.3653 21.8757 19.7917 21.875H5.20833ZM6.25 17.7083H18.75L14.8438 12.5L11.7188 16.6667L9.375 13.5417L6.25 17.7083ZM17.7083 9.375V7.29167H15.625V5.20833H17.7083V3.125H19.7917V5.20833H21.875V7.29167H19.7917V9.375H17.7083Z" fill="#BFB2F3"/>
</svg>
