<svg width="40" height="40" viewBox="0 0 40 40" fill="none" xmlns="http://www.w3.org/2000/svg">
<path d="M20 5C16.0218 5 12.2064 6.58035 9.3934 9.3934C6.58035 12.2064 5 16.0218 5 20C5 23.9782 6.58035 27.7936 9.3934 30.6066C12.2064 33.4196 16.0218 35 20 35C21.3833 35 22.5 33.8833 22.5 32.5C22.5 31.85 22.25 31.2667 21.85 30.8167C21.4667 30.3833 21.2167 29.8 21.2167 29.1667C21.2167 27.7833 22.3333 26.6667 23.7167 26.6667H26.6667C31.2667 26.6667 35 22.9333 35 18.3333C35 10.9667 28.2833 5 20 5ZM10.8333 20C9.45 20 8.33333 18.8833 8.33333 17.5C8.33333 16.1167 9.45 15 10.8333 15C12.2167 15 13.3333 16.1167 13.3333 17.5C13.3333 18.8833 12.2167 20 10.8333 20ZM15.8333 13.3333C14.45 13.3333 13.3333 12.2167 13.3333 10.8333C13.3333 9.45 14.45 8.33333 15.8333 8.33333C17.2167 8.33333 18.3333 9.45 18.3333 10.8333C18.3333 12.2167 17.2167 13.3333 15.8333 13.3333ZM24.1667 13.3333C22.7833 13.3333 21.6667 12.2167 21.6667 10.8333C21.6667 9.45 22.7833 8.33333 24.1667 8.33333C25.55 8.33333 26.6667 9.45 26.6667 10.8333C26.6667 12.2167 25.55 13.3333 24.1667 13.3333ZM29.1667 20C27.7833 20 26.6667 18.8833 26.6667 17.5C26.6667 16.1167 27.7833 15 29.1667 15C30.55 15 31.6667 16.1167 31.6667 17.5C31.6667 18.8833 30.55 20 29.1667 20Z" fill="#222222"/>
</svg>