<svg width="20" height="20" viewBox="0 0 20 20" fill="none" xmlns="http://www.w3.org/2000/svg">
<circle cx="10" cy="10" r="9.5" fill="#F24E1E" stroke="white"/>
<path d="M14.2 5.80657C14.1384 5.74477 14.0651 5.69574 13.9844 5.66228C13.9038 5.62883 13.8173 5.61161 13.73 5.61161C13.6427 5.61161 13.5563 5.62883 13.4756 5.66228C13.395 5.69574 13.3217 5.74477 13.26 5.80657L10 9.05991L6.74003 5.7999C6.67831 5.73818 6.60503 5.68922 6.52439 5.65582C6.44375 5.62242 6.35731 5.60522 6.27003 5.60522C6.18274 5.60522 6.09631 5.62242 6.01566 5.65582C5.93502 5.68922 5.86175 5.73818 5.80003 5.7999C5.73831 5.86163 5.68935 5.9349 5.65594 6.01554C5.62254 6.09619 5.60535 6.18262 5.60535 6.26991C5.60535 6.35719 5.62254 6.44362 5.65594 6.52427C5.68935 6.60491 5.73831 6.67818 5.80003 6.73991L9.06003 9.99991L5.80003 13.2599C5.73831 13.3216 5.68935 13.3949 5.65594 13.4755C5.62254 13.5562 5.60535 13.6426 5.60535 13.7299C5.60535 13.8172 5.62254 13.9036 5.65594 13.9843C5.68935 14.0649 5.73831 14.1382 5.80003 14.1999C5.86175 14.2616 5.93502 14.3106 6.01566 14.344C6.09631 14.3774 6.18274 14.3946 6.27003 14.3946C6.35731 14.3946 6.44375 14.3774 6.52439 14.344C6.60503 14.3106 6.67831 14.2616 6.74003 14.1999L10 10.9399L13.26 14.1999C13.3217 14.2616 13.395 14.3106 13.4757 14.344C13.5563 14.3774 13.6427 14.3946 13.73 14.3946C13.8173 14.3946 13.9037 14.3774 13.9844 14.344C14.065 14.3106 14.1383 14.2616 14.2 14.1999C14.2617 14.1382 14.3107 14.0649 14.3441 13.9843C14.3775 13.9036 14.3947 13.8172 14.3947 13.7299C14.3947 13.6426 14.3775 13.5562 14.3441 13.4755C14.3107 13.3949 14.2617 13.3216 14.2 13.2599L10.94 9.99991L14.2 6.73991C14.4534 6.48657 14.4534 6.0599 14.2 5.80657Z" fill="white"/>
</svg>