<svg width="40" height="40" viewBox="0 0 40 40" fill="none" xmlns="http://www.w3.org/2000/svg">
<path d="M35 33.3333H33.3333V4.99992C33.3333 4.55789 33.1577 4.13397 32.8452 3.82141C32.5326 3.50885 32.1087 3.33325 31.6666 3.33325H25.8333C25.5425 3.33501 25.2571 3.41285 25.0057 3.55904C24.7542 3.70524 24.5454 3.91469 24.4 4.16659L7.38331 33.3333H4.99998C4.55795 33.3333 4.13403 33.5088 3.82147 33.8214C3.50891 34.134 3.33331 34.5579 3.33331 34.9999C3.33331 35.4419 3.50891 35.8659 3.82147 36.1784C4.13403 36.491 4.55795 36.6666 4.99998 36.6666H11.6666C12.1087 36.6666 12.5326 36.491 12.8452 36.1784C13.1577 35.8659 13.3333 35.4419 13.3333 34.9999C13.3333 34.5579 13.1577 34.134 12.8452 33.8214C12.5326 33.5088 12.1087 33.3333 11.6666 33.3333H11.2333L17.0666 23.3333H30V33.3333H28.3333C27.8913 33.3333 27.4674 33.5088 27.1548 33.8214C26.8422 34.134 26.6666 34.5579 26.6666 34.9999C26.6666 35.4419 26.8422 35.8659 27.1548 36.1784C27.4674 36.491 27.8913 36.6666 28.3333 36.6666H35C35.442 36.6666 35.8659 36.491 36.1785 36.1784C36.4911 35.8659 36.6666 35.4419 36.6666 34.9999C36.6666 34.5579 36.4911 34.134 36.1785 33.8214C35.8659 33.5088 35.442 33.3333 35 33.3333ZM30 19.9999H19.0166L26.7833 6.66659H30V19.9999Z" fill="#222222"/>
</svg>