<svg width="40" height="40" viewBox="0 0 40 40" fill="none" xmlns="http://www.w3.org/2000/svg">
<path fill-rule="evenodd" clip-rule="evenodd" d="M7.41869 5.91209C7.21872 5.71261 6.9478 5.60059 6.66535 5.60059C6.3829 5.60059 6.11198 5.71261 5.91202 5.91209L0.578686 11.2454C0.386908 11.4469 0.281431 11.7154 0.284744 11.9935C0.288057 12.2717 0.399898 12.5375 0.596421 12.7344C0.792944 12.9313 1.0586 13.0436 1.33674 13.0474C1.61489 13.0512 1.88352 12.9462 2.08535 12.7548L5.60002 9.24276V30.7574L2.08535 27.2454C1.88352 27.054 1.61489 26.949 1.33674 26.9528C1.0586 26.9566 0.792944 27.0689 0.596421 27.2658C0.399898 27.4627 0.288057 27.7285 0.284744 28.0067C0.281431 28.2848 0.386908 28.5533 0.578686 28.7548L5.91202 34.0881C6.11198 34.2876 6.3829 34.3996 6.66535 34.3996C6.9478 34.3996 7.21872 34.2876 7.41869 34.0881L12.752 28.7548C12.9438 28.5533 13.0493 28.2848 13.046 28.0067C13.0426 27.7285 12.9308 27.4627 12.7343 27.2658C12.5378 27.0689 12.2721 26.9566 11.994 26.9528C11.7158 26.949 11.4472 27.054 11.2454 27.2454L7.73069 30.7574V9.24276L11.2454 12.7548C11.4472 12.9462 11.7158 13.0512 11.994 13.0474C12.2721 13.0436 12.5378 12.9313 12.7343 12.7344C12.9308 12.5375 13.0426 12.2717 13.046 11.9935C13.0493 11.7154 12.9438 11.4469 12.752 11.2454L7.41869 5.91209ZM28 7.33343C28.274 7.33354 28.5414 7.41808 28.7656 7.57554C28.9899 7.733 29.1602 7.95573 29.2534 8.21343L37.2534 30.4001C37.3621 30.7297 37.3381 31.0887 37.1863 31.4009C37.0346 31.7131 36.7671 31.9537 36.4407 32.0718C36.1143 32.1899 35.7547 32.176 35.4384 32.0331C35.1221 31.8903 34.8739 31.6297 34.7467 31.3068L32.128 24.0428H23.872L21.2534 31.3041C21.1261 31.627 20.878 31.8876 20.5616 32.0305C20.2453 32.1733 19.8857 32.1872 19.5593 32.0691C19.2329 31.9511 18.9654 31.7104 18.8137 31.3982C18.6619 31.0861 18.6379 30.727 18.7467 30.3974L26.7467 8.21343C26.8399 7.95573 27.0102 7.733 27.2344 7.57554C27.4587 7.41808 27.726 7.33354 28 7.33343ZM28 12.5974L31.3094 21.7761H24.6934L28 12.5974Z" fill="#222222"/>
</svg>