<svg width="40" height="40" viewBox="0 0 40 40" fill="none" xmlns="http://www.w3.org/2000/svg">
<circle cx="20" cy="20" r="18.5" fill="#96CAF7" stroke="white" stroke-width="3"/>
<path d="M19.5938 12.9688C19.9792 12.9688 20.25 13.0469 20.4062 13.2031C20.5729 13.349 20.6562 13.599 20.6562 13.9531V18.8438H25.5469C25.901 18.8438 26.151 18.9271 26.2969 19.0938C26.4531 19.25 26.5312 19.5208 26.5312 19.9062C26.5312 20.2917 26.4531 20.5677 26.2969 20.7344C26.151 20.8906 25.901 20.9688 25.5469 20.9688H20.6562V25.8594C20.6562 26.2135 20.5729 26.4688 20.4062 26.625C20.25 26.7708 19.9792 26.8438 19.5938 26.8438C19.2083 26.8438 18.9323 26.7708 18.7656 26.625C18.6094 26.4688 18.5312 26.2135 18.5312 25.8594V20.9688H13.6406C13.2865 20.9688 13.0312 20.8906 12.875 20.7344C12.7292 20.5677 12.6562 20.2917 12.6562 19.9062C12.6562 19.5208 12.7292 19.25 12.875 19.0938C13.0312 18.9271 13.2865 18.8438 13.6406 18.8438H18.5312V13.9531C18.5312 13.599 18.6094 13.349 18.7656 13.2031C18.9323 13.0469 19.2083 12.9688 19.5938 12.9688Z" fill="white"/>
</svg>