<svg width="83" height="83" viewBox="0 0 83 83" fill="none" xmlns="http://www.w3.org/2000/svg">
<g filter="url(#filter0_d_500_184)">
<circle cx="41.5" cy="37.5" r="37.5" fill="black" fill-opacity="0.5"/>
<path d="M27.502 47.9336C27.7808 48.0656 28.0829 48.1413 28.3911 48.1563C28.6992 48.1713 29.0073 48.1253 29.2977 48.021C29.588 47.9166 29.8549 47.756 30.083 47.5483C30.3111 47.3406 30.4959 47.0899 30.627 46.8106L33.6641 40.3438H48.3359L51.3789 46.8106C51.6436 47.3731 52.1209 47.8075 52.7059 48.0181C53.2908 48.2287 53.9355 48.1983 54.498 47.9336C55.0606 47.6689 55.495 47.1916 55.7056 46.6066C55.9162 46.0217 55.8858 45.377 55.6211 44.8145L43.1211 18.252C42.9318 17.8493 42.6319 17.5089 42.2562 17.2704C41.8806 17.0319 41.4449 16.9053 41 16.9053C40.5551 16.9053 40.1194 17.0319 39.7438 17.2704C39.3681 17.5089 39.0682 17.8493 38.8789 18.252L26.3789 44.8145C26.2478 45.093 26.1728 45.3946 26.1583 45.7022C26.1438 46.0097 26.19 46.317 26.2943 46.6067C26.3986 46.8963 26.5589 47.1626 26.7661 47.3903C26.9733 47.618 27.2234 47.8026 27.502 47.9336ZM41 24.7539L46.1309 35.6563H35.8691L41 24.7539ZM60.5312 55.1875C60.5312 55.8091 60.2843 56.4053 59.8448 56.8448C59.4052 57.2843 58.8091 57.5313 58.1875 57.5313H23.8125C23.1909 57.5313 22.5948 57.2843 22.1552 56.8448C21.7157 56.4053 21.4688 55.8091 21.4688 55.1875C21.4688 54.5659 21.7157 53.9698 22.1552 53.5302C22.5948 53.0907 23.1909 52.8438 23.8125 52.8438H58.1875C58.8091 52.8438 59.4052 53.0907 59.8448 53.5302C60.2843 53.9698 60.5312 54.5659 60.5312 55.1875Z" fill="white"/>
</g>
<defs>
<filter id="filter0_d_500_184" x="0" y="0" width="83" height="83" filterUnits="userSpaceOnUse" color-interpolation-filters="sRGB">
<feFlood flood-opacity="0" result="BackgroundImageFix"/>
<feColorMatrix in="SourceAlpha" type="matrix" values="0 0 0 0 0 0 0 0 0 0 0 0 0 0 0 0 0 0 127 0" result="hardAlpha"/>
<feOffset dy="4"/>
<feGaussianBlur stdDeviation="2"/>
<feComposite in2="hardAlpha" operator="out"/>
<feColorMatrix type="matrix" values="0 0 0 0 1 0 0 0 0 1 0 0 0 0 1 0 0 0 0.25 0"/>
<feBlend mode="normal" in2="BackgroundImageFix" result="effect1_dropShadow_500_184"/>
<feBlend mode="normal" in="SourceGraphic" in2="effect1_dropShadow_500_184" result="shape"/>
</filter>
</defs>
</svg>