<svg width="26" height="26" viewBox="0 0 26 26" fill="none" xmlns="http://www.w3.org/2000/svg">
<path d="M13.25 20.1944C13.6435 20.1944 13.9736 20.0611 14.2403 19.7944C14.506 19.5287 14.6389 19.1991 14.6389 18.8056V14.6389H18.8056C19.1991 14.6389 19.5287 14.5056 19.7944 14.2389C20.0611 13.9731 20.1944 13.6435 20.1944 13.25C20.1944 12.8565 20.0611 12.5264 19.7944 12.2597C19.5287 11.994 19.1991 11.8611 18.8056 11.8611H14.6389V7.69444C14.6389 7.30093 14.506 6.97083 14.2403 6.70417C13.9736 6.43843 13.6435 6.30556 13.25 6.30556C12.8565 6.30556 12.5269 6.43843 12.2611 6.70417C11.9944 6.97083 11.8611 7.30093 11.8611 7.69444V11.8611H7.69444C7.30093 11.8611 6.97083 11.994 6.70417 12.2597C6.43843 12.5264 6.30556 12.8565 6.30556 13.25C6.30556 13.6435 6.43843 13.9731 6.70417 14.2389C6.97083 14.5056 7.30093 14.6389 7.69444 14.6389H11.8611V18.8056C11.8611 19.1991 11.9944 19.5287 12.2611 19.7944C12.5269 20.0611 12.8565 20.1944 13.25 20.1944ZM3.52778 25.75C2.76389 25.75 2.10972 25.4782 1.56528 24.9347C1.02176 24.3903 0.75 23.7361 0.75 22.9722V3.52778C0.75 2.76389 1.02176 2.10972 1.56528 1.56528C2.10972 1.02176 2.76389 0.75 3.52778 0.75H22.9722C23.7361 0.75 24.3903 1.02176 24.9347 1.56528C25.4782 2.10972 25.75 2.76389 25.75 3.52778V22.9722C25.75 23.7361 25.4782 24.3903 24.9347 24.9347C24.3903 25.4782 23.7361 25.75 22.9722 25.75H3.52778ZM3.52778 22.9722H22.9722V3.52778H3.52778V22.9722Z" fill="black"/>
</svg>