<svg width="30" height="30" viewBox="0 0 30 30" fill="none" xmlns="http://www.w3.org/2000/svg">
<mask id="path-1-outside-1_12_79" maskUnits="userSpaceOnUse" x="1.75" y="5.5" width="23" height="23" fill="black">
<rect fill="white" x="1.75" y="5.5" width="23" height="23"/>
<path d="M22.5 13.125V23.9062C22.5 24.214 22.4394 24.5188 22.3216 24.8032C22.2038 25.0875 22.0312 25.3459 21.8135 25.5635C21.5959 25.7812 21.3375 25.9538 21.0532 26.0716C20.7688 26.1894 20.464 26.25 20.1562 26.25H6.09375C5.47215 26.25 4.87601 26.0031 4.43647 25.5635C3.99693 25.124 3.75 24.5279 3.75 23.9062V9.84375C3.75 9.22215 3.99693 8.62601 4.43647 8.18647C4.87601 7.74693 5.47215 7.5 6.09375 7.5H15.907"/>
</mask>
<path d="M24.5 13.125C24.5 12.0204 23.6046 11.125 22.5 11.125C21.3954 11.125 20.5 12.0204 20.5 13.125H24.5ZM22.5 23.9062H20.5H22.5ZM6.09375 26.25V24.25V26.25ZM3.75 23.9062H1.75H3.75ZM3.75 9.84375H1.75H3.75ZM6.09375 7.5V5.5V7.5ZM15.907 9.5C17.0116 9.5 17.907 8.60457 17.907 7.5C17.907 6.39543 17.0116 5.5 15.907 5.5V9.5ZM20.5 13.125V23.9062H24.5V13.125H20.5ZM20.5 23.9062C20.5 23.9514 20.4911 23.9961 20.4738 24.0378L24.1694 25.5685C24.3876 25.0415 24.5 24.4767 24.5 23.9062H20.5ZM20.4738 24.0378C20.4566 24.0795 20.4312 24.1174 20.3993 24.1493L23.2277 26.9777C23.6311 26.5744 23.9511 26.0955 24.1694 25.5685L20.4738 24.0378ZM20.3993 24.1493C20.3674 24.1812 20.3295 24.2066 20.2878 24.2238L21.8185 27.9194C22.3455 27.7011 22.8244 27.3811 23.2277 26.9777L20.3993 24.1493ZM20.2878 24.2238C20.2461 24.2411 20.2014 24.25 20.1562 24.25V28.25C20.7267 28.25 21.2915 28.1376 21.8185 27.9194L20.2878 24.2238ZM20.1562 24.25H6.09375V28.25H20.1562V24.25ZM6.09375 24.25C6.00258 24.25 5.91515 24.2138 5.85068 24.1493L3.02225 26.9777C3.83687 27.7924 4.94172 28.25 6.09375 28.25V24.25ZM5.85068 24.1493C5.78622 24.0849 5.75 23.9974 5.75 23.9062H1.75C1.75 25.0583 2.20764 26.1631 3.02225 26.9777L5.85068 24.1493ZM5.75 23.9062V9.84375H1.75V23.9062H5.75ZM5.75 9.84375C5.75 9.75258 5.78622 9.66515 5.85068 9.60068L3.02225 6.77225C2.20764 7.58687 1.75 8.69172 1.75 9.84375H5.75ZM5.85068 9.60068C5.91515 9.53622 6.00258 9.5 6.09375 9.5V5.5C4.94172 5.5 3.83687 5.95764 3.02225 6.77225L5.85068 9.60068ZM6.09375 9.5H15.907V5.5H6.09375V9.5Z" fill="black" mask="url(#path-1-outside-1_12_79)"/>
<path d="M25.8403 4.12974C25.7425 4.02187 25.6967 3.90226 25.6885 3.78716C25.7453 3.77752 25.803 3.77264 25.8609 3.77264C25.9684 3.77264 26.075 3.78943 26.1769 3.82224C26.177 3.82253 26.1771 3.82281 26.1772 3.8231C26.1774 3.82381 26.1777 3.82451 26.1779 3.82522C26.184 3.8443 26.1896 3.86356 26.1946 3.88299C26.2012 3.90861 26.2068 3.93451 26.2114 3.96065C26.2218 4.01945 26.2271 4.07942 26.2271 4.13994C26.2271 4.19764 26.2222 4.25483 26.2128 4.31099C26.1666 4.3076 26.121 4.29847 26.0771 4.28385C26.0582 4.27757 26.0397 4.27028 26.0215 4.262C25.9619 4.23476 25.9075 4.19725 25.8609 4.15128C25.8572 4.14756 25.8535 4.14378 25.8498 4.13994C25.8472 4.13729 25.8447 4.1346 25.8422 4.13189C25.8422 4.13188 25.8422 4.13187 25.8422 4.13186C25.8419 4.13148 25.8415 4.1311 25.8412 4.13073C25.8409 4.1304 25.8406 4.13007 25.8403 4.12974ZM25.9258 4.86842L25.9271 4.86713C25.9266 4.86756 25.9262 4.86799 25.9258 4.86842ZM26.5918 4.07638L26.5884 4.07298C26.5896 4.07411 26.5907 4.07525 26.5918 4.07638Z" fill="black" stroke="black" stroke-width="3"/>
</svg>