<svg width="24" height="17" viewBox="0 0 24 17" fill="none" xmlns="http://www.w3.org/2000/svg">
<path d="M0 0.75C0 0.551088 0.0790178 0.360322 0.21967 0.21967C0.360322 0.0790178 0.551088 0 0.75 0H23.25C23.4489 0 23.6397 0.0790178 23.7803 0.21967C23.921 0.360322 24 0.551088 24 0.75C24 0.948912 23.921 1.13968 23.7803 1.28033C23.6397 1.42098 23.4489 1.5 23.25 1.5H0.75C0.551088 1.5 0.360322 1.42098 0.21967 1.28033C0.0790178 1.13968 0 0.948912 0 0.75ZM0 8.25C0 8.05109 0.0790178 7.86032 0.21967 7.71967C0.360322 7.57902 0.551088 7.5 0.75 7.5H23.25C23.4489 7.5 23.6397 7.57902 23.7803 7.71967C23.921 7.86032 24 8.05109 24 8.25C24 8.44891 23.921 8.63968 23.7803 8.78033C23.6397 8.92098 23.4489 9 23.25 9H0.75C0.551088 9 0.360322 8.92098 0.21967 8.78033C0.0790178 8.63968 0 8.44891 0 8.25ZM0.75 15C0.551088 15 0.360322 15.079 0.21967 15.2197C0.0790178 15.3603 0 15.5511 0 15.75C0 15.9489 0.0790178 16.1397 0.21967 16.2803C0.360322 16.421 0.551088 16.5 0.75 16.5H23.25C23.4489 16.5 23.6397 16.421 23.7803 16.2803C23.921 16.1397 24 15.9489 24 15.75C24 15.5511 23.921 15.3603 23.7803 15.2197C23.6397 15.079 23.4489 15 23.25 15H0.75Z" fill="black"/>
</svg>