<svg width="24" height="27" viewBox="0 0 24 27" fill="none" xmlns="http://www.w3.org/2000/svg">
<path d="M17.1562 24.7188C17.1562 25.0917 17.0081 25.4494 16.7443 25.7131C16.4806 25.9768 16.1229 26.125 15.75 26.125H8.24998C7.87702 26.125 7.51933 25.9768 7.25561 25.7131C6.99188 25.4494 6.84373 25.0917 6.84373 24.7188C6.84373 24.3458 6.99188 23.9881 7.25561 23.7244C7.51933 23.4607 7.87702 23.3125 8.24998 23.3125H15.75C16.1229 23.3125 16.4806 23.4607 16.7443 23.7244C17.0081 23.9881 17.1562 24.3458 17.1562 24.7188ZM23.2851 20.2656C23.0805 20.6224 22.7853 20.9187 22.4292 21.1245C22.0732 21.3303 21.669 21.4383 21.2578 21.4375H2.74216C2.33062 21.4347 1.92698 21.3242 1.57146 21.1168C1.21594 20.9095 0.920948 20.6127 0.715866 20.2558C0.510784 19.899 0.402772 19.4947 0.402588 19.0831C0.402405 18.6716 0.510056 18.2672 0.71482 17.9102C1.38279 16.7617 2.17966 14.5703 2.17966 10.6562V10.1875C2.17658 8.89591 2.42832 7.61639 2.92045 6.42223C3.41259 5.22807 4.13546 4.14272 5.04767 3.22833C5.95987 2.31395 7.0435 1.58849 8.23648 1.09351C9.42947 0.598531 10.7084 0.343746 12 0.34375H12.0703C17.4492 0.378906 21.8203 4.84375 21.8203 10.293V10.6562C21.8203 14.5703 22.6172 16.7617 23.2851 17.9102C23.4919 18.2682 23.6007 18.6744 23.6007 19.0879C23.6007 19.5014 23.4919 19.9075 23.2851 20.2656ZM20.4844 18.625C19.2773 16.0938 19.0078 12.9414 19.0078 10.6562V10.293C19.0078 6.37891 15.8906 3.17969 12.0586 3.15625H12C11.0773 3.15469 10.1634 3.33567 9.31094 3.68876C8.45848 4.04185 7.68428 4.56008 7.03293 5.21361C6.38158 5.86715 5.86594 6.64307 5.51569 7.4967C5.16545 8.35033 4.98753 9.26482 4.99216 10.1875V10.6562C4.99216 12.9414 4.72263 16.0938 3.5156 18.625H20.4844Z" fill="black"/>
</svg>