<svg width="30" height="30" viewBox="0 0 30 30" fill="none" xmlns="http://www.w3.org/2000/svg">
<path d="M26.9496 3.12012C26.864 3.02604 26.7602 2.9503 26.6445 2.89747C26.5288 2.84464 26.4035 2.81583 26.2764 2.81276C26.1492 2.80969 26.0227 2.83244 25.9046 2.87963C25.7865 2.92682 25.6791 2.99747 25.5891 3.08731L24.8643 3.8086C24.7764 3.89649 24.7271 4.01568 24.7271 4.13994C24.7271 4.26421 24.7764 4.38339 24.8643 4.47129L25.5287 5.13457C25.5723 5.17833 25.624 5.21305 25.6811 5.23675C25.7381 5.26044 25.7992 5.27264 25.8609 5.27264C25.9227 5.27264 25.9838 5.26044 26.0408 5.23675C26.0978 5.21305 26.1496 5.17833 26.1932 5.13457L26.8998 4.43145C27.2572 4.07461 27.2906 3.49336 26.9496 3.12012ZM23.3988 5.27344L12.8215 15.832C12.7574 15.8959 12.7108 15.9752 12.6861 16.0623L12.1969 17.5195C12.1852 17.5591 12.1843 17.601 12.1945 17.641C12.2046 17.681 12.2254 17.7175 12.2545 17.7466C12.2837 17.7758 12.3202 17.7966 12.3602 17.8067C12.4001 17.8169 12.4421 17.816 12.4817 17.8043L13.9377 17.315C14.0248 17.2904 14.1041 17.2438 14.168 17.1797L24.7266 6.60117C24.8243 6.50244 24.879 6.36916 24.879 6.23028C24.879 6.09139 24.8243 5.95811 24.7266 5.85938L24.1436 5.27344C24.0447 5.17486 23.9108 5.11951 23.7712 5.11951C23.6316 5.11951 23.4977 5.17486 23.3988 5.27344Z" fill="black"/>
<path d="M22.6371 11.3473L15.4951 18.5033C15.2191 18.78 14.8798 18.9854 14.5066 19.1016L12.9891 19.6096C12.6289 19.7113 12.2481 19.7151 11.886 19.6207C11.5239 19.5263 11.1935 19.337 10.9288 19.0723C10.6642 18.8077 10.4749 18.4773 10.3805 18.1152C10.2861 17.753 10.2899 17.3723 10.3916 17.0121L10.8996 15.4945C11.0155 15.1215 11.2204 14.7822 11.4967 14.5061L18.6527 7.36289C18.7183 7.29737 18.763 7.21387 18.7812 7.12294C18.7993 7.03202 18.7901 6.93776 18.7546 6.85209C18.7192 6.76641 18.6591 6.69317 18.5821 6.64163C18.505 6.59008 18.4144 6.56254 18.3217 6.5625H6.09375C5.22351 6.5625 4.38891 6.9082 3.77356 7.52356C3.1582 8.13891 2.8125 8.97351 2.8125 9.84375V23.9062C2.8125 24.7765 3.1582 25.6111 3.77356 26.2264C4.38891 26.8418 5.22351 27.1875 6.09375 27.1875H20.1562C21.0265 27.1875 21.8611 26.8418 22.4764 26.2264C23.0918 25.6111 23.4375 24.7765 23.4375 23.9062V11.6783C23.4375 11.5856 23.4099 11.495 23.3584 11.4179C23.3068 11.3409 23.2336 11.2808 23.1479 11.2454C23.0622 11.2099 22.968 11.2007 22.8771 11.2188C22.7861 11.237 22.7026 11.2817 22.6371 11.3473Z" fill="black"/>
</svg>