<svg width="24" height="18" viewBox="0 0 24 18" fill="none" xmlns="http://www.w3.org/2000/svg">
<path d="M0 1.125C0 0.826631 0.118526 0.540483 0.329505 0.329505C0.540483 0.118526 0.826631 0 1.125 0H22.875C23.1734 0 23.4595 0.118526 23.6705 0.329505C23.8815 0.540483 24 0.826631 24 1.125C24 1.42337 23.8815 1.70952 23.6705 1.9205C23.4595 2.13147 23.1734 2.25 22.875 2.25H1.125C0.826631 2.25 0.540483 2.13147 0.329505 1.9205C0.118526 1.70952 0 1.42337 0 1.125ZM0 8.625C0 8.32663 0.118526 8.04048 0.329505 7.82951C0.540483 7.61853 0.826631 7.5 1.125 7.5H22.875C23.1734 7.5 23.4595 7.61853 23.6705 7.82951C23.8815 8.04048 24 8.32663 24 8.625C24 8.92337 23.8815 9.20952 23.6705 9.42049C23.4595 9.63147 23.1734 9.75 22.875 9.75H1.125C0.826631 9.75 0.540483 9.63147 0.329505 9.42049C0.118526 9.20952 0 8.92337 0 8.625ZM1.125 15C0.826631 15 0.540483 15.1185 0.329505 15.3295C0.118526 15.5405 0 15.8266 0 16.125C0 16.4234 0.118526 16.7095 0.329505 16.9205C0.540483 17.1315 0.826631 17.25 1.125 17.25H22.875C23.1734 17.25 23.4595 17.1315 23.6705 16.9205C23.8815 16.7095 24 16.4234 24 16.125C24 15.8266 23.8815 15.5405 23.6705 15.3295C23.4595 15.1185 23.1734 15 22.875 15H1.125Z" fill="black"/>
</svg>