<svg width="24" height="25" viewBox="0 0 24 25" fill="none" xmlns="http://www.w3.org/2000/svg">
<path d="M22.4784 19.4354L22.4763 19.4391C22.3562 19.6488 22.1826 19.8228 21.9732 19.9433C21.7638 20.0639 21.5261 20.1266 21.2845 20.125H21.2813L2.71877 20.125L2.71559 20.125C2.47397 20.1266 2.23628 20.0639 2.02687 19.9433C1.81745 19.8228 1.64383 19.6488 1.52379 19.4391L1.5238 19.4391L1.52167 19.4354C1.39952 19.2262 1.33586 18.9879 1.33737 18.7456C1.33887 18.5034 1.40548 18.2659 1.53023 18.0582L1.53028 18.0582L1.53439 18.0511C2.27819 16.7653 3.12502 14.4016 3.12502 10.3125L3.12502 9.37501L3.12502 9.37438C3.12356 8.20857 3.35211 7.05393 3.79757 5.97658C4.24303 4.89923 4.89666 3.92035 5.72101 3.096C6.54536 2.27164 7.52424 1.61802 8.60159 1.17255C9.67894 0.727093 10.8336 0.498547 11.9994 0.500007H12H12.0686C16.9202 0.534163 20.875 4.55874 20.875 9.48048V10.3125C20.875 14.4016 21.7219 16.7653 22.4656 18.0511L22.4656 18.0512L22.4698 18.0582C22.5946 18.2659 22.6612 18.5034 22.6627 18.7456C22.6642 18.9879 22.6005 19.2262 22.4784 19.4354ZM8.2383 23H15.7383C15.8543 23 15.9656 23.0461 16.0477 23.1281C16.1297 23.2102 16.1758 23.3215 16.1758 23.4375C16.1758 23.5535 16.1297 23.6648 16.0477 23.7469C15.9656 23.8289 15.8543 23.875 15.7383 23.875H8.2383C8.12227 23.875 8.01099 23.8289 7.92894 23.7469C7.8469 23.6648 7.8008 23.5535 7.8008 23.4375C7.8008 23.3215 7.8469 23.2102 7.92894 23.1281C8.01099 23.0461 8.12227 23 8.2383 23Z" fill="black" stroke="black"/>
</svg>