<svg width="26" height="26" viewBox="0 0 35 35" fill="none" xmlns="http://www.w3.org/2000/svg">
<path d="M17.5 11.6667H5.83335C5.05981 11.6667 4.31794 11.974 3.77096 12.521C3.22398 13.068 2.91669 13.8098 2.91669 14.5834V20.4167C2.91669 21.1903 3.22398 21.9321 3.77096 22.4791C4.31794 23.0261 5.05981 23.3334 5.83335 23.3334H7.29169V29.1667C7.29169 29.5535 7.44533 29.9244 7.71882 30.1979C7.99231 30.4714 8.36325 30.625 8.75002 30.625H11.6667C12.0535 30.625 12.4244 30.4714 12.6979 30.1979C12.9714 29.9244 13.125 29.5535 13.125 29.1667V23.3334H17.5L24.7917 29.1667V5.83337L17.5 11.6667ZM31.3542 17.5C31.3542 19.9938 29.9542 22.2542 27.7084 23.3334V11.6667C29.9396 12.7605 31.3542 15.0209 31.3542 17.5Z" fill="black"/>
</svg>
