<svg width="24" height="24" viewBox="0 0 24 24" fill="none" xmlns="http://www.w3.org/2000/svg">
<path fill-rule="evenodd" clip-rule="evenodd" d="M3.87499 9.5C3.87499 8.76131 4.02048 8.02986 4.30317 7.34741C4.58585 6.66495 5.00018 6.04485 5.52251 5.52252C6.04484 5.00019 6.66494 4.58586 7.34739 4.30318C8.02985 4.02049 8.7613 3.875 9.49999 3.875C10.2387 3.875 10.9701 4.02049 11.6526 4.30318C12.335 4.58586 12.9551 5.00019 13.4775 5.52252C13.9998 6.04485 14.4141 6.66495 14.6968 7.34741C14.9795 8.02986 15.125 8.76131 15.125 9.5C15.125 10.9918 14.5324 12.4226 13.4775 13.4775C12.4226 14.5324 10.9918 15.125 9.49999 15.125C8.00814 15.125 6.5774 14.5324 5.52251 13.4775C4.46762 12.4226 3.87499 10.9918 3.87499 9.5ZM9.49999 0.125C8.03811 0.125154 6.59653 0.467178 5.29039 1.12375C3.98425 1.78032 2.84975 2.73325 1.97753 3.9064C1.1053 5.07956 0.519506 6.44044 0.266947 7.88034C0.014387 9.32023 0.102058 10.7992 0.522956 12.1992C0.943854 13.5992 1.68631 14.8813 2.69103 15.9432C3.69575 17.0051 4.93488 17.8174 6.30943 18.315C7.68399 18.8127 9.15589 18.982 10.6075 18.8095C12.0592 18.6369 13.4504 18.1273 14.67 17.3213L20.6737 23.3263C21.0255 23.678 21.5025 23.8756 22 23.8756C22.4974 23.8756 22.9745 23.678 23.3262 23.3263C23.678 22.9745 23.8756 22.4974 23.8756 22C23.8756 21.5026 23.678 21.0255 23.3262 20.6737L17.3212 14.67C18.2553 13.257 18.7892 11.6173 18.866 9.92524C18.9428 8.23314 18.5598 6.55184 17.7576 5.06001C16.9554 3.56818 15.764 2.32155 14.31 1.45261C12.8561 0.583671 11.1938 0.124882 9.49999 0.125Z" fill="black"/>
</svg>