<svg width="30" height="30" viewBox="0 0 30 30" fill="none" xmlns="http://www.w3.org/2000/svg">
<path d="M15 5.00008C15 5.88414 15.3511 6.73198 15.9763 7.3571C16.6014 7.98223 17.4492 8.33341 18.3333 8.33341C19.2173 8.33341 20.0652 7.98223 20.6903 7.3571C21.3154 6.73198 21.6666 5.88414 21.6666 5.00008M15 5.00008C15 4.11603 15.3511 3.26818 15.9763 2.64306C16.6014 2.01794 17.4492 1.66675 18.3333 1.66675C19.2173 1.66675 20.0652 2.01794 20.6903 2.64306C21.3154 3.26818 21.6666 4.11603 21.6666 5.00008M15 5.00008H1.66663M21.6666 5.00008H28.3333M4.99996 15.0001C4.99996 15.8841 5.35115 16.732 5.97627 17.3571C6.60139 17.9822 7.44924 18.3334 8.33329 18.3334C9.21735 18.3334 10.0652 17.9822 10.6903 17.3571C11.3154 16.732 11.6666 15.8841 11.6666 15.0001M4.99996 15.0001C4.99996 14.116 5.35115 13.2682 5.97627 12.6431C6.60139 12.0179 7.44924 11.6667 8.33329 11.6667C9.21735 11.6667 10.0652 12.0179 10.6903 12.6431C11.3154 13.2682 11.6666 14.116 11.6666 15.0001M4.99996 15.0001H1.66663M11.6666 15.0001H28.3333M20 25.0001C20 25.8841 20.3511 26.732 20.9763 27.3571C21.6014 27.9822 22.4492 28.3334 23.3333 28.3334C24.2173 28.3334 25.0652 27.9822 25.6903 27.3571C26.3154 26.732 26.6666 25.8841 26.6666 25.0001M20 25.0001C20 24.116 20.3511 23.2682 20.9763 22.6431C21.6014 22.0179 22.4492 21.6667 23.3333 21.6667C24.2173 21.6667 25.0652 22.0179 25.6903 22.6431C26.3154 23.2682 26.6666 24.116 26.6666 25.0001M20 25.0001H1.66663M26.6666 25.0001H28.3333" stroke="black" stroke-width="3.33333" stroke-linecap="round" stroke-linejoin="round"/>
</svg>