<svg width="40" height="40" viewBox="0 0 40 40" fill="none" xmlns="http://www.w3.org/2000/svg">
<path d="M20 10.0001C20 10.8841 20.3511 11.732 20.9763 12.3571C21.6014 12.9822 22.4492 13.3334 23.3333 13.3334C24.2173 13.3334 25.0652 12.9822 25.6903 12.3571C26.3154 11.732 26.6666 10.8841 26.6666 10.0001M20 10.0001C20 9.11603 20.3511 8.26818 20.9763 7.64306C21.6014 7.01794 22.4492 6.66675 23.3333 6.66675C24.2173 6.66675 25.0652 7.01794 25.6903 7.64306C26.3154 8.26818 26.6666 9.11603 26.6666 10.0001M20 10.0001H6.66663M26.6666 10.0001H33.3333M9.99996 20.0001C9.99996 20.8841 10.3511 21.732 10.9763 22.3571C11.6014 22.9822 12.4492 23.3334 13.3333 23.3334C14.2173 23.3334 15.0652 22.9822 15.6903 22.3571C16.3154 21.732 16.6666 20.8841 16.6666 20.0001M9.99996 20.0001C9.99996 19.116 10.3511 18.2682 10.9763 17.6431C11.6014 17.0179 12.4492 16.6667 13.3333 16.6667C14.2173 16.6667 15.0652 17.0179 15.6903 17.6431C16.3154 18.2682 16.6666 19.116 16.6666 20.0001M9.99996 20.0001H6.66663M16.6666 20.0001H33.3333M25 30.0001C25 30.8841 25.3511 31.732 25.9763 32.3571C26.6014 32.9822 27.4492 33.3334 28.3333 33.3334C29.2173 33.3334 30.0652 32.9822 30.6903 32.3571C31.3154 31.732 31.6666 30.8841 31.6666 30.0001M25 30.0001C25 29.116 25.3511 28.2682 25.9763 27.6431C26.6014 27.0179 27.4492 26.6667 28.3333 26.6667C29.2173 26.6667 30.0652 27.0179 30.6903 27.6431C31.3154 28.2682 31.6666 29.116 31.6666 30.0001M25 30.0001H6.66663M31.6666 30.0001H33.3333" stroke="black" stroke-width="3.33333" stroke-linecap="round" stroke-linejoin="round"/>
</svg>