<svg width="40" height="40" viewBox="0 0 40 40" fill="none" xmlns="http://www.w3.org/2000/svg">
<g clip-path="url(#clip0_316_18)">
<path d="M20 40C17.3889 40 14.9233 39.535 12.6033 38.605C10.2844 37.6739 8.22944 36.3817 6.43833 34.7283C4.64611 33.0761 3.18056 31.1317 2.04167 28.895C0.902778 26.6594 0.222222 24.25 0 21.6667H3.33333C3.55556 23.6667 4.09056 25.535 4.93833 27.2717C5.785 29.0072 6.88222 30.5417 8.23 31.875C9.57667 33.2083 11.125 34.2844 12.875 35.1033C14.625 35.9233 16.5 36.4167 18.5 36.5833L15.9167 34L18.25 31.6667L25.75 39.1667C24.8056 39.4722 23.8544 39.6872 22.8967 39.8117C21.9378 39.9372 20.9722 40 20 40ZM25 31.6667V28.3333H15C14.0833 28.3333 13.2989 28.0072 12.6467 27.355C11.9933 26.7017 11.6667 25.9167 11.6667 25V15H8.33333V11.6667H11.6667V8.33333H15V25H31.6667V28.3333H28.3333V31.6667H25ZM25 21.6667V15H18.3333V11.6667H25C25.9167 11.6667 26.7017 11.9928 27.355 12.645C28.0072 13.2983 28.3333 14.0833 28.3333 15V21.6667H25ZM36.6667 18.3333C36.4722 16.3333 35.9444 14.465 35.0833 12.7283C34.2222 10.9928 33.1178 9.45833 31.77 8.125C30.4233 6.79167 28.875 5.715 27.125 4.895C25.375 4.07611 23.5 3.58333 21.5 3.41667L24.0833 6L21.75 8.33333L14.25 0.833333C15.1944 0.527778 16.1456 0.312222 17.1033 0.186667C18.0622 0.0622222 19.0278 0 20 0C22.6111 0 25.0767 0.465 27.3967 1.395C29.7156 2.32611 31.7711 3.61778 33.5633 5.27C35.3544 6.92333 36.8194 8.86778 37.9583 11.1033C39.0972 13.34 39.7778 15.75 40 18.3333H36.6667Z" fill="black"/>
</g>
<defs>
<clipPath id="clip0_316_18">
<rect width="40" height="40" fill="white"/>
</clipPath>
</defs>
</svg>