<svg width="38" height="38" viewBox="0 0 38 38" fill="none" xmlns="http://www.w3.org/2000/svg">
<path d="M35.0719 16.0703L25.4344 12.5656L21.9297 2.92812C21.7111 2.32667 21.3127 1.80706 20.7885 1.43988C20.2644 1.0727 19.64 0.875732 19 0.875732C18.36 0.875732 17.7356 1.0727 17.2115 1.43988C16.6873 1.80706 16.2889 2.32667 16.0703 2.92812L12.5656 12.5656L2.92812 16.0703C2.32667 16.2889 1.80706 16.6873 1.43988 17.2115C1.0727 17.7356 0.875732 18.36 0.875732 19C0.875732 19.64 1.0727 20.2644 1.43988 20.7885C1.80706 21.3127 2.32667 21.7111 2.92812 21.9297L12.5656 25.4344L16.0703 35.0719C16.2889 35.6733 16.6873 36.1929 17.2115 36.5601C17.7356 36.9273 18.36 37.1243 19 37.1243C19.64 37.1243 20.2644 36.9273 20.7885 36.5601C21.3127 36.1929 21.7111 35.6733 21.9297 35.0719L25.4344 25.4344L35.0719 21.9297C35.6733 21.7111 36.1929 21.3127 36.5601 20.7885C36.9273 20.2644 37.1243 19.64 37.1243 19C37.1243 18.36 36.9273 17.7356 36.5601 17.2115C36.1929 16.6873 35.6733 16.2889 35.0719 16.0703ZM23.8766 22.0078C23.4479 22.1632 23.0587 22.4108 22.7363 22.7332C22.4139 23.0555 22.1663 23.4448 22.0109 23.8734L19 32.1547L15.9891 23.8734C15.8337 23.4448 15.5861 23.0555 15.2637 22.7332C14.9413 22.4108 14.5521 22.1632 14.1234 22.0078L5.84219 19L14.1234 15.9891C14.5521 15.8337 14.9413 15.5861 15.2637 15.2637C15.5861 14.9413 15.8337 14.5521 15.9891 14.1234L19 5.84219L22.0109 14.1234C22.1663 14.5521 22.4139 14.9413 22.7363 15.2637C23.0587 15.5861 23.4479 15.8337 23.8766 15.9891L32.1578 19L23.8766 22.0078Z" fill="black"/>
</svg>