<svg width="40" height="40" viewBox="0 0 40 40" fill="none" xmlns="http://www.w3.org/2000/svg">
<path d="M36.0719 17.0703L26.4344 13.5656L22.9297 3.92812C22.7111 3.32667 22.3127 2.80706 21.7885 2.43988C21.2644 2.0727 20.64 1.87573 20 1.87573C19.36 1.87573 18.7356 2.0727 18.2115 2.43988C17.6873 2.80706 17.2889 3.32667 17.0703 3.92812L13.5656 13.5656L3.92812 17.0703C3.32667 17.2889 2.80706 17.6873 2.43988 18.2115C2.0727 18.7356 1.87573 19.36 1.87573 20C1.87573 20.64 2.0727 21.2644 2.43988 21.7885C2.80706 22.3127 3.32667 22.7111 3.92812 22.9297L13.5656 26.4344L17.0703 36.0719C17.2889 36.6733 17.6873 37.1929 18.2115 37.5601C18.7356 37.9273 19.36 38.1243 20 38.1243C20.64 38.1243 21.2644 37.9273 21.7885 37.5601C22.3127 37.1929 22.7111 36.6733 22.9297 36.0719L26.4344 26.4344L36.0719 22.9297C36.6733 22.7111 37.1929 22.3127 37.5601 21.7885C37.9273 21.2644 38.1243 20.64 38.1243 20C38.1243 19.36 37.9273 18.7356 37.5601 18.2115C37.1929 17.6873 36.6733 17.2889 36.0719 17.0703ZM24.8766 23.0078C24.4479 23.1632 24.0587 23.4108 23.7363 23.7332C23.4139 24.0555 23.1663 24.4448 23.0109 24.8734L20 33.1547L16.9891 24.8734C16.8337 24.4448 16.5861 24.0555 16.2637 23.7332C15.9413 23.4108 15.5521 23.1632 15.1234 23.0078L6.84219 20L15.1234 16.9891C15.5521 16.8337 15.9413 16.5861 16.2637 16.2637C16.5861 15.9413 16.8337 15.5521 16.9891 15.1234L20 6.84219L23.0109 15.1234C23.1663 15.5521 23.4139 15.9413 23.7363 16.2637C24.0587 16.5861 24.4479 16.8337 24.8766 16.9891L33.1578 20L24.8766 23.0078Z" fill="black"/>
</svg>