<svg width="32" height="33" viewBox="0 0 32 33" fill="none" xmlns="http://www.w3.org/2000/svg">
<path d="M5.20156 24.9469C5.42463 25.0526 5.66635 25.1131 5.91287 25.1251C6.15939 25.1371 6.40585 25.1003 6.63812 25.0168C6.87039 24.9334 7.08389 24.8049 7.26638 24.6387C7.44887 24.4725 7.59676 24.272 7.70156 24.0485L10.1313 18.8751H21.8687L24.3031 24.0485C24.5149 24.4985 24.8967 24.846 25.3647 25.0145C25.8327 25.183 26.3484 25.1587 26.7984 24.9469C27.2485 24.7352 27.596 24.3533 27.7645 23.8854C27.9329 23.4174 27.9086 22.9017 27.6969 22.4516L17.6969 1.20162C17.5455 0.879502 17.3055 0.607136 17.005 0.416357C16.7045 0.225578 16.3559 0.124268 16 0.124268C15.6441 0.124268 15.2955 0.225578 14.995 0.416357C14.6945 0.607136 14.4545 0.879502 14.3031 1.20162L4.30312 22.4516C4.19823 22.6745 4.13826 22.9158 4.12664 23.1618C4.11502 23.4078 4.15198 23.6537 4.23542 23.8854C4.31885 24.1171 4.44711 24.3301 4.61289 24.5123C4.77866 24.6944 4.9787 24.8421 5.20156 24.9469ZM16 6.40318L20.1047 15.1251H11.8953L16 6.40318ZM31.625 30.7501C31.625 31.2473 31.4275 31.7243 31.0758 32.0759C30.7242 32.4275 30.2473 32.6251 29.75 32.6251H2.25C1.75272 32.6251 1.27581 32.4275 0.924175 32.0759C0.572544 31.7243 0.375 31.2473 0.375 30.7501C0.375 30.2528 0.572544 29.7759 0.924175 29.4242C1.27581 29.0726 1.75272 28.8751 2.25 28.8751H29.75C30.2473 28.8751 30.7242 29.0726 31.0758 29.4242C31.4275 29.7759 31.625 30.2528 31.625 30.7501Z" fill="black"/>
</svg>