<svg width="40" height="40" viewBox="0 0 40 40" fill="none" xmlns="http://www.w3.org/2000/svg">
<path d="M9.20156 27.9469C9.42463 28.0526 9.66635 28.1131 9.91287 28.1251C10.1594 28.1371 10.4059 28.1003 10.6381 28.0168C10.8704 27.9334 11.0839 27.8049 11.2664 27.6387C11.4489 27.4725 11.5968 27.272 11.7016 27.0485L14.1313 21.8751H25.8687L28.3031 27.0485C28.5149 27.4985 28.8967 27.846 29.3647 28.0145C29.8327 28.183 30.3484 28.1587 30.7984 27.9469C31.2485 27.7352 31.596 27.3533 31.7645 26.8854C31.9329 26.4174 31.9086 25.9017 31.6969 25.4516L21.6969 4.20162C21.5455 3.8795 21.3055 3.60714 21.005 3.41636C20.7045 3.22558 20.3559 3.12427 20 3.12427C19.6441 3.12427 19.2955 3.22558 18.995 3.41636C18.6945 3.60714 18.4545 3.8795 18.3031 4.20162L8.30312 25.4516C8.19823 25.6745 8.13826 25.9158 8.12664 26.1618C8.11502 26.4078 8.15198 26.6537 8.23542 26.8854C8.31885 27.1171 8.44711 27.3301 8.61289 27.5123C8.77866 27.6944 8.9787 27.8421 9.20156 27.9469ZM20 9.40318L24.1047 18.1251H15.8953L20 9.40318ZM35.625 33.7501C35.625 34.2473 35.4275 34.7243 35.0758 35.0759C34.7242 35.4275 34.2473 35.6251 33.75 35.6251H6.25C5.75272 35.6251 5.27581 35.4275 4.92417 35.0759C4.57254 34.7243 4.375 34.2473 4.375 33.7501C4.375 33.2528 4.57254 32.7759 4.92417 32.4242C5.27581 32.0726 5.75272 31.8751 6.25 31.8751H33.75C34.2473 31.8751 34.7242 32.0726 35.0758 32.4242C35.4275 32.7759 35.625 33.2528 35.625 33.7501Z" fill="black"/>
</svg>