<svg width="40" height="40" viewBox="0 0 40 40" fill="none" xmlns="http://www.w3.org/2000/svg">
<path d="M20 9.99996C20 10.884 20.3511 11.7319 20.9763 12.357C21.6014 12.9821 22.4492 13.3333 23.3333 13.3333C24.2173 13.3333 25.0652 12.9821 25.6903 12.357C26.3154 11.7319 26.6666 10.884 26.6666 9.99996M20 9.99996C20 9.1159 20.3511 8.26806 20.9763 7.64294C21.6014 7.01782 22.4492 6.66663 23.3333 6.66663C24.2173 6.66663 25.0652 7.01782 25.6903 7.64294C26.3154 8.26806 26.6666 9.1159 26.6666 9.99996M20 9.99996H6.66663M26.6666 9.99996H33.3333M9.99996 20C9.99996 20.884 10.3511 21.7319 10.9763 22.357C11.6014 22.9821 12.4492 23.3333 13.3333 23.3333C14.2173 23.3333 15.0652 22.9821 15.6903 22.357C16.3154 21.7319 16.6666 20.884 16.6666 20M9.99996 20C9.99996 19.1159 10.3511 18.2681 10.9763 17.6429C11.6014 17.0178 12.4492 16.6666 13.3333 16.6666C14.2173 16.6666 15.0652 17.0178 15.6903 17.6429C16.3154 18.2681 16.6666 19.1159 16.6666 20M9.99996 20H6.66663M16.6666 20H33.3333M25 30C25 30.884 25.3511 31.7319 25.9763 32.357C26.6014 32.9821 27.4492 33.3333 28.3333 33.3333C29.2173 33.3333 30.0652 32.9821 30.6903 32.357C31.3154 31.7319 31.6666 30.884 31.6666 30M25 30C25 29.1159 25.3511 28.2681 25.9763 27.6429C26.6014 27.0178 27.4492 26.6666 28.3333 26.6666C29.2173 26.6666 30.0652 27.0178 30.6903 27.6429C31.3154 28.2681 31.6666 29.1159 31.6666 30M25 30H6.66663M31.6666 30H33.3333" stroke="white" stroke-width="3.33333" stroke-linecap="round" stroke-linejoin="round"/>
</svg>