<svg width="40" height="40" viewBox="0 0 40 40" fill="none" xmlns="http://www.w3.org/2000/svg">
<g clip-path="url(#clip0_500_263)">
<path d="M20 40C17.3889 40 14.9233 39.5345 12.6033 38.6033C10.2833 37.6722 8.22778 36.3811 6.43667 34.73C4.64556 33.0767 3.18056 31.1322 2.04167 28.8967C0.902778 26.6611 0.222222 24.2511 0 21.6667H3.33333C3.55556 23.6667 4.09056 25.535 4.93833 27.2717C5.78611 29.0084 6.88278 30.5428 8.22833 31.875C9.57611 33.2083 11.125 34.285 12.875 35.105C14.625 35.925 16.5 36.4178 18.5 36.5833L15.9167 34L18.25 31.6667L25.75 39.1667C24.8056 39.4722 23.8544 39.6878 22.8967 39.8133C21.9389 39.9389 20.9733 40.0011 20 40ZM25 31.6667V28.3333H15C14.0833 28.3333 13.2983 28.0067 12.645 27.3533C11.9917 26.7 11.6656 25.9156 11.6667 25V15H8.33333V11.6667H11.6667V8.33335H15V25H31.6667V28.3333H28.3333V31.6667H25ZM25 21.6667V15H18.3333V11.6667H25C25.9167 11.6667 26.7017 11.9933 27.355 12.6467C28.0083 13.3 28.3344 14.0845 28.3333 15V21.6667H25ZM36.6667 18.3333C36.4722 16.3333 35.9444 14.465 35.0833 12.7283C34.2222 10.9917 33.1178 9.45724 31.77 8.12501C30.4233 6.79168 28.875 5.71501 27.125 4.89501C25.375 4.07501 23.5 3.58224 21.5 3.41668L24.0833 6.00001L21.75 8.33335L14.25 0.833348C15.1944 0.527792 16.1461 0.312237 17.105 0.186681C18.0639 0.0611257 19.0289 -0.00109649 20 1.46199e-05C22.6111 1.46199e-05 25.0767 0.46557 27.3967 1.39668C29.7167 2.32779 31.7722 3.61946 33.5633 5.27168C35.3544 6.9239 36.8194 8.86835 37.9583 11.105C39.0972 13.3417 39.7778 15.7511 40 18.3333H36.6667Z" fill="white"/>
</g>
<defs>
<clipPath id="clip0_500_263">
<rect width="40" height="40" fill="white"/>
</clipPath>
</defs>
</svg>