<svg width="26" height="26" viewBox="0 0 26 26" fill="none" xmlns="http://www.w3.org/2000/svg">
<path d="M13 0.5C11.3585 0.5 9.73301 0.823322 8.21644 1.45151C6.69987 2.07969 5.32188 3.00043 4.16115 4.16117C1.81695 6.50537 0.499985 9.68479 0.499985 13C0.489057 15.8864 1.48848 18.6857 3.32499 20.9125L0.824985 23.4125C0.651538 23.5883 0.534043 23.8115 0.487325 24.054C0.440607 24.2965 0.466761 24.5474 0.562485 24.775C0.666307 24.9999 0.834615 25.1889 1.04604 25.318C1.25747 25.4471 1.50249 25.5104 1.74999 25.5H13C16.3152 25.5 19.4946 24.183 21.8388 21.8388C24.183 19.4946 25.5 16.3152 25.5 13C25.5 9.68479 24.183 6.50537 21.8388 4.16117C19.4946 1.81696 16.3152 0.5 13 0.5ZM13 23H4.76249L5.92499 21.8375C6.1578 21.6033 6.28848 21.2865 6.28848 20.9562C6.28848 20.626 6.1578 20.3092 5.92499 20.075C4.28822 18.4401 3.26895 16.2882 3.04085 13.986C2.81274 11.6838 3.38991 9.37376 4.67402 7.4494C5.95813 5.52505 7.86972 4.10545 10.0831 3.43247C12.2965 2.75948 14.6748 2.87476 16.8128 3.75864C18.9507 4.64253 20.7161 6.24034 21.808 8.27986C22.9 10.3194 23.2511 12.6744 22.8014 14.9438C22.3517 17.2131 21.1291 19.2563 19.3419 20.7253C17.5547 22.1943 15.3134 22.9982 13 23Z" fill="black"/>
</svg>