<svg width="25" height="25" viewBox="0 0 25 25" fill="none" xmlns="http://www.w3.org/2000/svg">
<path d="M9.375 10.4167H9.38542M15.625 10.4167H15.6354M3.125 12.5C3.125 13.7311 3.36749 14.9502 3.83863 16.0877C4.30977 17.2251 5.00032 18.2586 5.87087 19.1291C6.74142 19.9997 7.77492 20.6902 8.91234 21.1614C10.0498 21.6325 11.2689 21.875 12.5 21.875C13.7311 21.875 14.9502 21.6325 16.0877 21.1614C17.2251 20.6902 18.2586 19.9997 19.1291 19.1291C19.9997 18.2586 20.6902 17.2251 21.1614 16.0877C21.6325 14.9502 21.875 13.7311 21.875 12.5C21.875 11.2689 21.6325 10.0498 21.1614 8.91234C20.6902 7.77492 19.9997 6.74142 19.1291 5.87087C18.2586 5.00032 17.2251 4.30977 16.0877 3.83863C14.9502 3.36749 13.7311 3.125 12.5 3.125C11.2689 3.125 10.0498 3.36749 8.91234 3.83863C7.77492 4.30977 6.74142 5.00032 5.87087 5.87087C5.00032 6.74142 4.30977 7.77492 3.83863 8.91234C3.36749 10.0498 3.125 11.2689 3.125 12.5Z" stroke="#BFB2F3" stroke-width="2" stroke-linecap="round" stroke-linejoin="round"/>
<path d="M9.89575 15.625C10.2352 15.9715 10.6404 16.2467 11.0876 16.4346C11.5347 16.6225 12.0149 16.7193 12.4999 16.7193C12.985 16.7193 13.4651 16.6225 13.9123 16.4346C14.3595 16.2467 14.7646 15.9715 15.1041 15.625" stroke="#BFB2F3" stroke-width="2" stroke-linecap="round" stroke-linejoin="round"/>
</svg>
