<svg width="25" height="25" viewBox="0 0 25 25" fill="none" xmlns="http://www.w3.org/2000/svg">
<path fill-rule="evenodd" clip-rule="evenodd" d="M3.33341 9.99992V14.9999L21.6667 14.9999V9.99992L3.33341 9.99992ZM3.33341 8.33325L21.6667 8.33325V4.16659C21.6667 3.94557 21.579 3.73361 21.4227 3.57733C21.2664 3.42105 21.0544 3.33325 20.8334 3.33325H4.16675C3.94573 3.33325 3.73377 3.42105 3.57749 3.57733C3.42121 3.73361 3.33341 3.94557 3.33341 4.16659L3.33341 8.33325ZM3.33341 20.8333L3.33341 16.6666H21.6667V20.8333C21.6667 21.0543 21.579 21.2662 21.4227 21.4225C21.2664 21.5788 21.0544 21.6666 20.8334 21.6666H4.16675C3.94573 21.6666 3.73377 21.5788 3.57749 21.4225C3.42121 21.2662 3.33341 21.0543 3.33341 20.8333ZM1.66675 20.8333C1.66675 21.4963 1.93014 22.1322 2.39898 22.601C2.86782 23.0699 3.50371 23.3333 4.16675 23.3333H20.8334C21.4965 23.3333 22.1323 23.0699 22.6012 22.601C23.07 22.1322 23.3334 21.4963 23.3334 20.8333V4.16659C23.3334 3.50354 23.07 2.86766 22.6012 2.39882C22.1323 1.92998 21.4965 1.66659 20.8334 1.66659H4.16675C3.50371 1.66659 2.86782 1.92998 2.39898 2.39882C1.93014 2.86766 1.66675 3.50354 1.66675 4.16659L1.66675 20.8333Z" fill="#777777"/>
</svg>
