<svg width="25" height="25" viewBox="0 0 25 25" fill="none" xmlns="http://www.w3.org/2000/svg">
<g clip-path="url(#clip0_1749_72)">
<path d="M7.8125 1.5625V14.0625H1.5625V1.5625H7.8125ZM1.5625 0C1.1481 0 0.750671 0.16462 0.457646 0.457646C0.16462 0.750671 0 1.1481 0 1.5625L0 14.0625C0 14.4769 0.16462 14.8743 0.457646 15.1674C0.750671 15.4604 1.1481 15.625 1.5625 15.625H7.8125C8.2269 15.625 8.62433 15.4604 8.91735 15.1674C9.21038 14.8743 9.375 14.4769 9.375 14.0625V1.5625C9.375 1.1481 9.21038 0.750671 8.91735 0.457646C8.62433 0.16462 8.2269 0 7.8125 0L1.5625 0ZM21.875 3.125V10.9375H14.0625V3.125H21.875ZM14.0625 1.5625C13.6481 1.5625 13.2507 1.72712 12.9576 2.02015C12.6646 2.31317 12.5 2.7106 12.5 3.125V10.9375C12.5 11.3519 12.6646 11.7493 12.9576 12.0424C13.2507 12.3354 13.6481 12.5 14.0625 12.5H21.875C22.2894 12.5 22.6868 12.3354 22.9799 12.0424C23.2729 11.7493 23.4375 11.3519 23.4375 10.9375V3.125C23.4375 2.7106 23.2729 2.31317 22.9799 2.02015C22.6868 1.72712 22.2894 1.5625 21.875 1.5625H14.0625ZM7.8125 20.3125V23.4375H4.6875V20.3125H7.8125ZM4.6875 18.75C4.2731 18.75 3.87567 18.9146 3.58265 19.2076C3.28962 19.5007 3.125 19.8981 3.125 20.3125V23.4375C3.125 23.8519 3.28962 24.2493 3.58265 24.5424C3.87567 24.8354 4.2731 25 4.6875 25H7.8125C8.2269 25 8.62433 24.8354 8.91735 24.5424C9.21038 24.2493 9.375 23.8519 9.375 23.4375V20.3125C9.375 19.8981 9.21038 19.5007 8.91735 19.2076C8.62433 18.9146 8.2269 18.75 7.8125 18.75H4.6875ZM23.4375 17.1875V20.3125H14.0625V17.1875H23.4375ZM14.0625 15.625C13.6481 15.625 13.2507 15.7896 12.9576 16.0826C12.6646 16.3757 12.5 16.7731 12.5 17.1875V20.3125C12.5 20.7269 12.6646 21.1243 12.9576 21.4174C13.2507 21.7104 13.6481 21.875 14.0625 21.875H23.4375C23.8519 21.875 24.2493 21.7104 24.5424 21.4174C24.8354 21.1243 25 20.7269 25 20.3125V17.1875C25 16.7731 24.8354 16.3757 24.5424 16.0826C24.2493 15.7896 23.8519 15.625 23.4375 15.625H14.0625Z" fill="#777777"/>
</g>
<defs>
<clipPath id="clip0_1749_72">
<rect width="25" height="25" fill="white"/>
</clipPath>
</defs>
</svg>
