<svg width="25" height="25" viewBox="0 0 25 25" fill="none" xmlns="http://www.w3.org/2000/svg">
<path d="M9.375 3.125H4.16667C3.59137 3.125 3.125 3.59137 3.125 4.16667V9.375C3.125 9.9503 3.59137 10.4167 4.16667 10.4167H9.375C9.9503 10.4167 10.4167 9.9503 10.4167 9.375V4.16667C10.4167 3.59137 9.9503 3.125 9.375 3.125Z" stroke="#777777" stroke-width="2.08333" stroke-linecap="round" stroke-linejoin="round"/>
<path d="M20.8333 3.125H15.6249C15.0496 3.125 14.5833 3.59137 14.5833 4.16667V9.375C14.5833 9.9503 15.0496 10.4167 15.6249 10.4167H20.8333C21.4085 10.4167 21.8749 9.9503 21.8749 9.375V4.16667C21.8749 3.59137 21.4085 3.125 20.8333 3.125Z" stroke="#777777" stroke-width="2.08333" stroke-linecap="round" stroke-linejoin="round"/>
<path d="M20.8333 14.5834H15.6249C15.0496 14.5834 14.5833 15.0497 14.5833 15.625V20.8334C14.5833 21.4087 15.0496 21.875 15.6249 21.875H20.8333C21.4085 21.875 21.8749 21.4087 21.8749 20.8334V15.625C21.8749 15.0497 21.4085 14.5834 20.8333 14.5834Z" stroke="#777777" stroke-width="2.08333" stroke-linecap="round" stroke-linejoin="round"/>
<path d="M9.375 14.5834H4.16667C3.59137 14.5834 3.125 15.0497 3.125 15.625V20.8334C3.125 21.4087 3.59137 21.875 4.16667 21.875H9.375C9.9503 21.875 10.4167 21.4087 10.4167 20.8334V15.625C10.4167 15.0497 9.9503 14.5834 9.375 14.5834Z" stroke="#777777" stroke-width="2.08333" stroke-linecap="round" stroke-linejoin="round"/>
</svg>
