<svg width="28" height="24" viewBox="0 0 28 24" fill="none" xmlns="http://www.w3.org/2000/svg">
<path d="M14 23.5078C13.3773 23.5101 12.779 23.2657 12.3359 22.8281L2.59766 13.0898C1.87833 12.3685 1.31324 11.5084 0.936753 10.5618C0.560267 9.61522 0.380252 8.60195 0.407656 7.58361C0.435061 6.56527 0.669311 5.56315 1.09616 4.63818C1.52301 3.71321 2.13354 2.88473 2.89062 2.20312C3.62021 1.55182 4.47359 1.05425 5.39978 0.740149C6.32598 0.426048 7.30598 0.301859 8.28125 0.375C10.231 0.504182 12.0675 1.33706 13.4492 2.71875L14 3.26953L14.7852 2.47266C15.5065 1.75333 16.3666 1.18824 17.3132 0.811753C18.2598 0.435267 19.2731 0.255252 20.2914 0.282656C21.3097 0.310061 22.3119 0.544311 23.2368 0.971161C24.1618 1.39801 24.9903 2.00854 25.6719 2.76562C26.3232 3.49521 26.8208 4.34859 27.1349 5.27478C27.449 6.20098 27.5731 7.18098 27.5 8.15625C27.3708 10.106 26.5379 11.9425 25.1562 13.3242L15.6523 22.8281C15.4355 23.045 15.1778 23.2167 14.8942 23.3334C14.6106 23.4501 14.3067 23.5093 14 23.5078ZM7.78906 3.17578C6.68184 3.16057 5.60846 3.55734 4.77734 4.28906C4.30226 4.71423 3.91891 5.23185 3.65072 5.81025C3.38254 6.38865 3.23517 7.01568 3.21762 7.65299C3.20007 8.2903 3.31271 8.92449 3.54865 9.51677C3.7846 10.1091 4.13888 10.647 4.58984 11.0977L14 20.5078L23.1641 11.3438C25.0273 9.46875 25.2148 6.46875 23.5859 4.65234C23.1608 4.17726 22.6432 3.79391 22.0648 3.52572C21.4864 3.25754 20.8593 3.11017 20.222 3.09262C19.5847 3.07507 18.9505 3.18771 18.3582 3.42365C17.7659 3.6596 17.228 4.01388 16.7773 4.46484L14.9961 6.24609C14.8654 6.37719 14.7102 6.48121 14.5393 6.55219C14.3683 6.62317 14.1851 6.6597 14 6.6597C13.8149 6.6597 13.6317 6.62317 13.4607 6.55219C13.2898 6.48121 13.1346 6.37719 13.0039 6.24609L11.457 4.71094C10.9769 4.22606 10.4057 3.84082 9.77622 3.57737C9.14676 3.31392 8.47144 3.17744 7.78906 3.17578Z" fill="black"/>
</svg>