<svg width="6" height="20" viewBox="0 0 6 20" fill="none" xmlns="http://www.w3.org/2000/svg">
<path d="M3 20C2.3125 20 1.72417 19.7554 1.235 19.2663C0.745 18.7763 0.5 18.1875 0.5 17.5C0.5 16.8125 0.745 16.2237 1.235 15.7337C1.72417 15.2446 2.3125 15 3 15C3.6875 15 4.27625 15.2446 4.76625 15.7337C5.25542 16.2237 5.5 16.8125 5.5 17.5C5.5 18.1875 5.25542 18.7763 4.76625 19.2663C4.27625 19.7554 3.6875 20 3 20ZM3 12.5C2.3125 12.5 1.72417 12.255 1.235 11.765C0.745 11.2758 0.5 10.6875 0.5 10C0.5 9.3125 0.745 8.72375 1.235 8.23375C1.72417 7.74458 2.3125 7.5 3 7.5C3.6875 7.5 4.27625 7.74458 4.76625 8.23375C5.25542 8.72375 5.5 9.3125 5.5 10C5.5 10.6875 5.25542 11.2758 4.76625 11.765C4.27625 12.255 3.6875 12.5 3 12.5ZM3 5C2.3125 5 1.72417 4.755 1.235 4.265C0.745 3.77583 0.5 3.1875 0.5 2.5C0.5 1.8125 0.745 1.22417 1.235 0.735C1.72417 0.245 2.3125 0 3 0C3.6875 0 4.27625 0.245 4.76625 0.735C5.25542 1.22417 5.5 1.8125 5.5 2.5C5.5 3.1875 5.25542 3.77583 4.76625 4.265C4.27625 4.755 3.6875 5 3 5Z" fill="#777777"/>
</svg>