<svg width="25" height="25" viewBox="0 0 25 25" fill="none" xmlns="http://www.w3.org/2000/svg">
<path d="M10.9359 12.4977C11.6594 12.5063 12.3775 12.3713 13.0484 12.1004C13.7194 11.8295 14.3299 11.4281 14.8446 10.9196C15.3592 10.411 15.7679 9.80535 16.0468 9.13769C16.3257 8.47004 16.4693 7.75367 16.4693 7.0301C16.4693 6.30654 16.3257 5.59017 16.0468 4.92251C15.7679 4.25486 15.3592 3.6492 14.8446 3.14063C14.3299 2.63206 13.7194 2.23069 13.0484 1.9598C12.3775 1.68891 11.6594 1.55388 10.9359 1.56252C9.49717 1.57972 8.12316 2.16334 7.11182 3.18684C6.10048 4.21034 5.53333 5.59123 5.53333 7.0301C5.53333 8.46898 6.10048 9.84986 7.11182 10.8734C8.12316 11.8969 9.49717 12.4805 10.9359 12.4977ZM10.9359 10.9352C10.4185 10.9425 9.9047 10.8469 9.4245 10.6539C8.9443 10.461 8.50724 10.1745 8.13872 9.81115C7.7702 9.4478 7.47756 9.01483 7.27783 8.53741C7.07809 8.05998 6.97523 7.54762 6.97523 7.0301C6.97523 6.51258 7.07809 6.00022 7.27783 5.5228C7.47756 5.04537 7.7702 4.6124 8.13872 4.24906C8.50724 3.88571 8.9443 3.59923 9.4245 3.40627C9.9047 3.21331 10.4185 3.1177 10.9359 3.12502C11.9621 3.13954 12.9412 3.55735 13.6617 4.28812C14.3822 5.01888 14.7862 6.00388 14.7862 7.0301C14.7862 8.05633 14.3822 9.04132 13.6617 9.77209C12.9412 10.5029 11.9621 10.9207 10.9359 10.9352ZM4.29688 15.6227C3.98607 15.6227 3.688 15.7461 3.46823 15.9659C3.24846 16.1857 3.125 16.4838 3.125 16.7946V17.1844C3.125 18.3344 3.85938 19.4875 5.27969 20.3914C6.69141 21.2899 8.68906 21.8711 10.9359 21.8711C12.0211 21.8711 13.0477 21.7352 13.9789 21.4938L15.2336 22.7485C13.9391 23.1891 12.4758 23.4336 10.9359 23.4336C8.4375 23.4336 6.13906 22.7906 4.44062 21.7094C2.75156 20.6352 1.5625 19.0547 1.5625 17.1844V16.7938C1.5625 16.0686 1.85059 15.3731 2.36338 14.8603C2.87617 14.3475 3.57167 14.0594 4.29688 14.0594H11.7445C11.7266 14.1875 11.7172 14.3172 11.7172 14.45V15.6219L4.29688 15.6227ZM23.6695 20.4625C24.0209 20.1109 24.2183 19.6342 24.2183 19.1371C24.2183 18.6401 24.0209 18.1633 23.6695 17.8117L19.2039 13.3461C18.9109 13.0531 18.5136 12.8884 18.0992 12.8883H14.4508C14.0364 12.8883 13.639 13.0529 13.3459 13.346C13.0529 13.639 12.8883 14.0364 12.8883 14.4508V18.0992C12.8884 18.5136 13.053 18.911 13.3461 19.2039L17.8117 23.6696C18.1633 24.0209 18.64 24.2183 19.1371 24.2183C19.6342 24.2183 20.1109 24.0209 20.4625 23.6696L23.6695 20.4625ZM15.6227 16.4039C15.4155 16.4039 15.2167 16.3216 15.0702 16.1751C14.9237 16.0286 14.8414 15.8299 14.8414 15.6227C14.8414 15.4155 14.9237 15.2168 15.0702 15.0703C15.2167 14.9237 15.4155 14.8414 15.6227 14.8414C15.8299 14.8414 16.0286 14.9237 16.1751 15.0703C16.3216 15.2168 16.4039 15.4155 16.4039 15.6227C16.4039 15.8299 16.3216 16.0286 16.1751 16.1751C16.0286 16.3216 15.8299 16.4039 15.6227 16.4039Z" fill="#85B6FF"/>
</svg>
