<svg width="50" height="50" viewBox="0 0 50 50" fill="none" xmlns="http://www.w3.org/2000/svg">
<path d="M31.25 2.34375C28.7012 2.34523 26.1877 2.9402 23.9087 4.08153C21.6296 5.22286 19.6477 6.8792 18.1198 8.91933C16.5919 10.9595 15.5601 13.3274 15.1061 15.8354C14.652 18.3435 14.7882 20.9228 15.5039 23.3691L4.5918 34.2793C4.37422 34.4971 4.20168 34.7557 4.08406 35.0402C3.96643 35.3247 3.90601 35.6296 3.90625 35.9375V43.75C3.90625 44.3716 4.15318 44.9677 4.59272 45.4073C5.03226 45.8468 5.6284 46.0938 6.25 46.0938H14.0625C14.6841 46.0938 15.2802 45.8468 15.7198 45.4073C16.1593 44.9677 16.4062 44.3716 16.4062 43.75V41.4062H18.75C19.3716 41.4062 19.9677 41.1593 20.4073 40.7198C20.8468 40.2802 21.0938 39.6841 21.0938 39.0625V36.7188H23.4375C23.7454 36.719 24.0503 36.6586 24.3348 36.5409C24.6193 36.4233 24.8779 36.2508 25.0957 36.0332L26.6309 34.4961C28.8869 35.1562 31.2585 35.3238 33.5849 34.9875C35.9114 34.6512 38.1384 33.819 40.1152 32.5471C42.092 31.2752 43.7724 29.5933 45.0426 27.6154C46.3129 25.6375 47.1432 23.4098 47.4775 21.083C47.8118 18.7563 47.6421 16.3849 46.9801 14.1294C46.3181 11.8739 45.1791 9.78701 43.6403 8.01004C42.1015 6.23307 40.1989 4.80751 38.0612 3.82991C35.9235 2.8523 33.6006 2.34547 31.25 2.34375ZM31.25 30.4688C29.7722 30.4719 28.3073 30.1935 26.9336 29.6484C26.5028 29.4637 26.0264 29.4124 25.5661 29.5012C25.1059 29.59 24.6828 29.8148 24.3516 30.1465L22.4609 32.0312H18.75C18.1284 32.0312 17.5323 32.2782 17.0927 32.7177C16.6532 33.1573 16.4062 33.7534 16.4062 34.375V36.7188H14.0625C13.4409 36.7188 12.8448 36.9657 12.4052 37.4052C11.9657 37.8448 11.7188 38.4409 11.7188 39.0625V41.4062H8.59375V36.9141L19.8535 25.6543C20.1848 25.3232 20.4093 24.9005 20.4981 24.4406C20.5869 23.9807 20.5358 23.5048 20.3516 23.0742C19.4267 20.7447 19.2731 18.18 19.9133 15.7568C20.5535 13.3335 21.9538 11.1793 23.9085 9.61056C25.8632 8.04179 28.2695 7.14107 30.7738 7.04066C33.2782 6.94025 35.7488 7.64544 37.8229 9.05267C39.897 10.4599 41.4652 12.4951 42.2973 14.8593C43.1295 17.2235 43.1817 19.7923 42.4463 22.1884C41.7109 24.5844 40.2267 26.6816 38.2115 28.172C36.1963 29.6623 33.7564 30.4673 31.25 30.4688ZM38.2812 14.8438C38.2812 15.4618 38.098 16.066 37.7546 16.5799C37.4112 17.0938 36.9232 17.4944 36.3521 17.7309C35.7811 17.9674 35.1528 18.0293 34.5466 17.9087C33.9404 17.7881 33.3836 17.4905 32.9465 17.0535C32.5095 16.6164 32.2119 16.0596 32.0913 15.4534C31.9707 14.8472 32.0326 14.2189 32.2691 13.6479C32.5056 13.0768 32.9062 12.5888 33.4201 12.2454C33.934 11.902 34.5382 11.7188 35.1562 11.7188C35.9851 11.7188 36.7799 12.048 37.366 12.634C37.952 13.2201 38.2812 14.0149 38.2812 14.8438Z" fill="white"/>
</svg>
