<svg width="30" height="30" viewBox="0 0 30 30" fill="none" xmlns="http://www.w3.org/2000/svg">
<g clip-path="url(#clip0_1650_122)">
<path d="M30 15C30 23.2842 23.2842 30 15 30C6.71667 30 0 23.2842 0 15C0 6.71667 6.71667 0 15 0C23.2842 0 30 6.71667 30 15Z" fill="#FFCC4D"/>
<path d="M21.2375 24.8992C21.2 24.75 20.2642 21.25 15 21.25C9.73499 21.25 8.79999 24.75 8.76249 24.8992C8.74059 24.9871 8.74803 25.0798 8.78368 25.1632C8.81934 25.2465 8.88125 25.3159 8.95999 25.3608C9.03916 25.4053 9.13055 25.423 9.2206 25.4115C9.31066 25.3999 9.3946 25.3597 9.45999 25.2967C9.47582 25.2808 11.0883 23.75 15 23.75C18.9117 23.75 20.525 25.2808 20.54 25.2958C20.6045 25.3596 20.688 25.4006 20.7779 25.4128C20.8678 25.425 20.9592 25.4076 21.0383 25.3633C21.1178 25.3184 21.1803 25.2487 21.2163 25.1649C21.2522 25.081 21.2597 24.9877 21.2375 24.8992ZM13.0892 14.4108C10.3767 11.6983 6.01749 11.6667 5.83332 11.6667C5.61875 11.6761 5.41611 11.768 5.26759 11.9232C5.11907 12.0783 5.03612 12.2848 5.03601 12.4996C5.0359 12.7144 5.11865 12.9209 5.26701 13.0762C5.41537 13.2315 5.61792 13.3236 5.83249 13.3333C5.85665 13.3333 7.43665 13.3517 9.15165 13.9475C8.65749 14.4808 8.33332 15.3092 8.33332 16.25C8.33332 17.8617 9.26582 19.1667 10.4167 19.1667C11.5675 19.1667 12.5 17.8617 12.5 16.25C12.5 16.105 12.4842 15.9667 12.4692 15.8275C12.48 15.8275 12.49 15.8333 12.5 15.8333C12.665 15.8337 12.8263 15.785 12.9636 15.6935C13.1009 15.602 13.2078 15.4718 13.271 15.3194C13.3341 15.167 13.3505 14.9992 13.3181 14.8375C13.2858 14.6757 13.2061 14.5272 13.0892 14.4108ZM24.1667 11.6667C23.9825 11.6667 19.6242 11.6983 16.9108 14.4108C16.7939 14.5272 16.7142 14.6757 16.6818 14.8375C16.6495 14.9992 16.6659 15.167 16.729 15.3194C16.7921 15.4718 16.8991 15.602 17.0364 15.6935C17.1737 15.785 17.335 15.8337 17.5 15.8333C17.5108 15.8333 17.52 15.8275 17.53 15.8275C17.5167 15.9667 17.5 16.105 17.5 16.25C17.5 17.8617 18.4325 19.1667 19.5833 19.1667C20.7342 19.1667 21.6667 17.8617 21.6667 16.25C21.6667 15.3092 21.3425 14.4808 20.8483 13.9475C21.9191 13.582 23.0376 13.3751 24.1683 13.3333C24.2778 13.3332 24.3861 13.3116 24.4872 13.2696C24.5882 13.2276 24.68 13.1661 24.7573 13.0887C24.8346 13.0112 24.8959 12.9193 24.9377 12.8181C24.9795 12.717 25.0009 12.6086 25.0008 12.4992C25.0007 12.3897 24.979 12.2814 24.9371 12.1803C24.8951 12.0793 24.8336 11.9874 24.7562 11.9101C24.6787 11.8328 24.5868 11.7715 24.4856 11.7298C24.3845 11.688 24.2761 11.6665 24.1667 11.6667Z" fill="#664500"/>
</g>
<defs>
<clipPath id="clip0_1650_122">
<rect width="30" height="30" fill="white"/>
</clipPath>
</defs>
</svg>
