<svg width="30" height="30" viewBox="0 0 30 30" fill="none" xmlns="http://www.w3.org/2000/svg">
<g clip-path="url(#clip0_1650_118)">
<path d="M30 15C30 23.2842 23.2842 30 15 30C6.71667 30 0 23.2842 0 15C0 6.71667 6.71667 0 15 0C23.2842 0 30 6.71667 30 15Z" fill="#FFCC4D"/>
<path d="M15 18.3333C11.9808 18.3333 9.97748 17.9817 7.49998 17.5C6.93415 17.3908 5.83331 17.5 5.83331 19.1667C5.83331 22.5 9.66248 26.6667 15 26.6667C20.3366 26.6667 24.1666 22.5 24.1666 19.1667C24.1666 17.5 23.0658 17.39 22.5 17.5C20.0225 17.9817 18.0191 18.3333 15 18.3333Z" fill="#664500"/>
<path d="M7.5 19.1667C7.5 19.1667 10 20 15 20C20 20 22.5 19.1667 22.5 19.1667C22.5 19.1667 20.8333 22.5 15 22.5C9.16667 22.5 7.5 19.1667 7.5 19.1667Z" fill="white"/>
<path d="M5.00084 16.6667C4.82608 16.6666 4.65576 16.6116 4.51397 16.5095C4.37218 16.4073 4.2661 16.2631 4.21073 16.0974C4.15535 15.9316 4.15349 15.7527 4.2054 15.5858C4.25732 15.4189 4.36038 15.2726 4.50001 15.1675C4.61918 15.0783 6.95918 13.3483 10.2133 12.7233C8.15084 11.6892 5.86168 11.6667 5.83251 11.6667C5.61795 11.657 5.4154 11.5649 5.26703 11.4096C5.11867 11.2543 5.03593 11.0477 5.03603 10.8329C5.03614 10.6182 5.11909 10.4117 5.26761 10.2565C5.41613 10.1014 5.61877 10.0095 5.83334 10C6.01751 10 10.3767 10.0317 13.0892 12.7442C13.2057 12.8607 13.285 13.0092 13.3172 13.1708C13.3493 13.3324 13.3328 13.5 13.2697 13.6522C13.2067 13.8045 13.0999 13.9346 12.9629 14.0262C12.8259 14.1177 12.6648 14.1666 12.5 14.1667C8.65584 14.1667 5.53084 16.4767 5.50001 16.5C5.3561 16.6082 5.18091 16.6667 5.00084 16.6667ZM24.9992 16.6658C24.8196 16.6661 24.6448 16.6082 24.5008 16.5008C24.4692 16.4767 21.325 14.1667 17.5 14.1667C17.335 14.167 17.1737 14.1184 17.0364 14.0269C16.8991 13.9354 16.7922 13.8051 16.729 13.6527C16.6659 13.5003 16.6495 13.3326 16.6819 13.1708C16.7142 13.0091 16.7939 12.8606 16.9108 12.7442C19.6242 10.0317 23.9825 10 24.1667 10C24.2761 9.99989 24.3845 10.0213 24.4856 10.0631C24.5868 10.1049 24.6787 10.1662 24.7562 10.2435C24.8336 10.3208 24.8951 10.4126 24.9371 10.5137C24.9791 10.6147 25.0007 10.7231 25.0008 10.8325C25.001 10.9419 24.9795 11.0503 24.9377 11.1515C24.896 11.2526 24.8347 11.3445 24.7574 11.422C24.6801 11.4995 24.5882 11.5609 24.4872 11.6029C24.3861 11.6449 24.2778 11.6666 24.1683 11.6667C24.1383 11.6667 21.8492 11.6892 19.7867 12.7233C23.0408 13.3483 25.3808 15.0775 25.4992 15.1675C25.6384 15.2726 25.7411 15.4188 25.7928 15.5855C25.8446 15.7521 25.8427 15.9308 25.7874 16.0963C25.7322 16.2618 25.6264 16.4058 25.485 16.508C25.3436 16.6102 25.1737 16.6654 24.9992 16.6658Z" fill="#664500"/>
</g>
<defs>
<clipPath id="clip0_1650_118">
<rect width="30" height="30" fill="white"/>
</clipPath>
</defs>
</svg>
