<svg width="30" height="30" viewBox="0 0 30 30" fill="none" xmlns="http://www.w3.org/2000/svg">
<path d="M29.13 14.93C29.13 14.5108 29.03 14.1175 28.8625 13.76C27.745 10.155 22.5133 10.4183 15.0716 10.2425C13.8275 10.2133 14.5391 8.74417 14.9758 5.51917C15.26 3.42167 13.9075 0.200836 11.6341 0.200836C7.8858 0.200836 11.4916 3.1575 8.17747 10.4692C6.40664 14.3758 2.4483 12.1875 2.4483 16.1117V25.0442C2.4483 26.5717 2.5983 28.04 4.74664 28.2817C6.82914 28.5158 6.3608 30 9.36497 30H24.4016C25.1381 29.9991 25.8442 29.7061 26.3649 29.1852C26.8857 28.6643 27.1785 27.9582 27.1791 27.2217C27.1791 26.5867 26.9566 26.0083 26.5975 25.54C27.4475 25.0642 28.0308 24.1658 28.0308 23.1242C28.0308 22.4908 27.8091 21.9125 27.4508 21.445C28.3033 20.97 28.8883 20.0708 28.8883 19.0275C28.8883 18.27 28.5816 17.5833 28.0875 17.0808C28.4114 16.8234 28.6732 16.4965 28.8537 16.1242C29.0342 15.7519 29.1286 15.3437 29.13 14.93Z" fill="#FFDB5E"/>
<path d="M19.1833 17.7075H26.3533C27.3283 17.7075 28.2433 17.1858 28.7417 16.3467C28.8304 16.1808 28.8517 15.9871 28.8011 15.8059C28.7504 15.6247 28.6318 15.4701 28.47 15.3742C28.3081 15.2783 28.1155 15.2487 27.9323 15.2914C27.7491 15.334 27.5895 15.4458 27.4867 15.6033C27.3695 15.7998 27.2035 15.9626 27.0047 16.0758C26.8059 16.189 26.5812 16.2487 26.3525 16.2492H19.0108C18.2833 16.2492 17.6916 15.6575 17.6916 14.93C17.6916 14.2025 18.2833 13.6108 19.0108 13.6108H23.9167C24.11 13.6108 24.2955 13.534 24.4322 13.3973C24.569 13.2605 24.6458 13.075 24.6458 12.8817C24.6458 12.6883 24.569 12.5028 24.4322 12.3661C24.2955 12.2293 24.11 12.1525 23.9167 12.1525H19.01C18.2736 12.1534 17.5677 12.4463 17.047 12.967C16.5263 13.4877 16.2334 14.1936 16.2325 14.93C16.2325 15.7842 16.6283 16.54 17.2366 17.05C16.9734 17.3076 16.7642 17.6153 16.6213 17.9549C16.4785 18.2944 16.405 18.6591 16.405 19.0275C16.405 19.8842 16.8033 20.6425 17.415 21.1517C17.1261 21.4359 16.9032 21.7801 16.7621 22.16C16.6209 22.5399 16.5651 22.9462 16.5984 23.3501C16.6317 23.754 16.7534 24.1456 16.9548 24.4973C17.1563 24.8489 17.4326 25.152 17.7641 25.385C17.3092 25.8888 17.0564 26.5429 17.0541 27.2217C17.055 27.958 17.3479 28.664 17.8686 29.1847C18.3893 29.7054 19.0953 29.9983 19.8317 29.9992H24.4016C24.8834 29.9979 25.3566 29.872 25.7752 29.6336C26.1939 29.3953 26.5438 29.0527 26.7908 28.6392C26.885 28.4732 26.9104 28.2769 26.8614 28.0924C26.8125 27.908 26.6932 27.75 26.5292 27.6525C26.3652 27.555 26.1694 27.5257 25.984 27.5709C25.7986 27.6161 25.6383 27.7321 25.5375 27.8942C25.42 28.0907 25.2536 28.2536 25.0546 28.3669C24.8556 28.4802 24.6307 28.5401 24.4016 28.5408H19.8317C19.1041 28.5408 18.5125 27.9492 18.5125 27.2217C18.5125 26.4942 19.1041 25.9025 19.8317 25.9025H25.2533C25.7351 25.9011 26.2084 25.7751 26.6271 25.5366C27.0457 25.2981 27.3955 24.9554 27.6425 24.5417C27.6937 24.4593 27.728 24.3675 27.7433 24.2718C27.7587 24.176 27.7547 24.0781 27.7318 23.9839C27.7088 23.8897 27.6673 23.8009 27.6096 23.723C27.5519 23.645 27.4793 23.5793 27.3959 23.5297C27.3125 23.4802 27.2201 23.4477 27.124 23.4343C27.028 23.4209 26.9302 23.4268 26.8365 23.4517C26.7427 23.4766 26.6548 23.5199 26.578 23.5791C26.5012 23.6383 26.437 23.7123 26.3891 23.7967C26.2731 23.9946 26.1071 24.1586 25.9078 24.2722C25.7085 24.3859 25.4828 24.4452 25.2533 24.4442H19.3675C19.0274 24.4294 18.7062 24.2839 18.4709 24.038C18.2355 23.7922 18.1041 23.4649 18.1041 23.1246C18.1041 22.7842 18.2355 22.457 18.4709 22.2111C18.7062 21.9653 19.0274 21.8198 19.3675 21.805H26.11C26.5917 21.8037 27.0649 21.6778 27.4836 21.4395C27.9022 21.2012 28.2521 20.8586 28.4992 20.445C28.5933 20.279 28.6187 20.0827 28.5698 19.8983C28.5209 19.7138 28.4016 19.5559 28.2375 19.4584C28.0735 19.3608 27.8778 19.3315 27.6923 19.3767C27.5069 19.4219 27.3466 19.538 27.2458 19.7C27.1296 19.8977 26.9636 20.0615 26.7642 20.175C26.5649 20.2885 26.3393 20.3477 26.11 20.3467H19.1833C18.8433 20.3319 18.5221 20.1864 18.2867 19.9405C18.0513 19.6947 17.9199 19.3674 17.9199 19.0271C17.9199 18.6867 18.0513 18.3595 18.2867 18.1136C18.5221 17.8678 18.8433 17.7223 19.1833 17.7075Z" fill="#EE9547"/>
</svg>
