<svg width="30" height="30" viewBox="0 0 30 30" fill="none" xmlns="http://www.w3.org/2000/svg">
<g clip-path="url(#clip0_1650_120)">
<path d="M30 15C30 23.2842 23.2842 30 15 30C6.71583 30 0 23.2842 0 15C0 6.71583 6.71583 0 15 0C23.2842 0 30 6.71583 30 15Z" fill="#FFCC4D"/>
<path d="M18.3333 22.5C18.3333 24.8025 16.8408 25 15 25C13.1583 25 11.6667 24.8025 11.6667 22.5C11.6667 20.1992 13.1583 17.5 15 17.5C16.8408 17.5 18.3333 20.1992 18.3333 22.5ZM25 12.5C24.894 12.5001 24.789 12.4797 24.6908 12.44C20.3333 10.6975 18.5475 8.07249 18.4733 7.96165C18.3503 7.77799 18.3053 7.55299 18.3482 7.33615C18.3911 7.11931 18.5184 6.9284 18.7021 6.8054C18.8857 6.68241 19.1107 6.63741 19.3276 6.68031C19.5444 6.72321 19.7353 6.85049 19.8583 7.03415C19.8742 7.05665 21.4667 9.35498 25.3092 10.8917C25.4898 10.963 25.6398 11.0953 25.7333 11.2655C25.8268 11.4357 25.8579 11.6332 25.8212 11.824C25.7846 12.0147 25.6824 12.1866 25.5325 12.31C25.3825 12.4335 25.1942 12.5007 25 12.5ZM4.99998 12.5C4.80662 12.4994 4.61949 12.4316 4.47057 12.3082C4.32166 12.1849 4.22023 12.0136 4.18361 11.8238C4.147 11.6339 4.17748 11.4372 4.26984 11.2674C4.36221 11.0975 4.51072 10.965 4.68998 10.8925C8.53332 9.35582 10.1258 7.05749 10.1417 7.03499C10.2655 6.85238 10.4566 6.72622 10.6732 6.68406C10.8897 6.6419 11.1142 6.68717 11.2975 6.80999C11.4805 6.93256 11.6075 7.12276 11.6504 7.33884C11.6934 7.55491 11.6489 7.7792 11.5266 7.96249C11.4525 8.07332 9.66665 10.6983 5.30998 12.4408C5.21128 12.4798 5.10611 12.4999 4.99998 12.5Z" fill="#664500"/>
<path d="M20 13.3333H23.3334V29.1667L20 29.1283V13.3333ZM6.66669 29.1667L10 29.1283V13.3333H6.66669V29.1667Z" fill="#5DADEC"/>
<path d="M12.4992 15C12.3742 15 12.2467 14.9717 12.1275 14.9125C9.20082 13.4492 6.23582 14.8975 6.20666 14.9125C6.10877 14.9615 6.00219 14.9907 5.89301 14.9985C5.78383 15.0062 5.67419 14.9924 5.57034 14.9579C5.46649 14.9233 5.37048 14.8686 5.28777 14.7969C5.20507 14.7252 5.13729 14.6379 5.08832 14.54C5.03935 14.4421 5.01014 14.3355 5.00235 14.2264C4.99457 14.1172 5.00837 14.0075 5.04296 13.9037C5.07755 13.7998 5.13225 13.7038 5.20395 13.6211C5.27565 13.5384 5.36293 13.4706 5.46082 13.4217C5.61249 13.3467 9.20916 11.5908 12.8733 13.4217C13.0411 13.5058 13.1757 13.6441 13.2551 13.8142C13.3345 13.9843 13.3541 14.1762 13.3108 14.3589C13.2675 14.5415 13.1638 14.7042 13.0165 14.8206C12.8692 14.937 12.6869 15.0002 12.4992 15ZM24.1658 15C24.0408 15 23.9133 14.9717 23.7942 14.9125C20.8667 13.4492 17.9025 14.8975 17.8733 14.9125C17.7754 14.9615 17.6689 14.9907 17.5597 14.9985C17.4505 15.0062 17.3409 14.9924 17.237 14.9579C17.1332 14.9233 17.0371 14.8686 16.9544 14.7969C16.8717 14.7252 16.804 14.6379 16.755 14.54C16.706 14.4421 16.6768 14.3355 16.669 14.2264C16.6612 14.1172 16.675 14.0075 16.7096 13.9037C16.7442 13.7998 16.7989 13.7038 16.8706 13.6211C16.9423 13.5384 17.0296 13.4706 17.1275 13.4217C17.2792 13.3467 20.8783 11.5917 24.54 13.4217C24.7078 13.5058 24.8423 13.6441 24.9217 13.8142C25.0011 13.9843 25.0208 14.1762 24.9775 14.3589C24.9342 14.5415 24.8305 14.7042 24.6831 14.8206C24.5358 14.937 24.3535 15.0002 24.1658 15Z" fill="#664500"/>
<path d="M15 30C23.2843 30 30 29.2538 30 28.3333C30 27.4128 23.2843 26.6667 15 26.6667C6.71573 26.6667 0 27.4128 0 28.3333C0 29.2538 6.71573 30 15 30Z" fill="#5DADEC"/>
<path d="M15 24.1667C16.3807 24.1667 17.5 23.4205 17.5 22.5C17.5 21.5795 16.3807 20.8333 15 20.8333C13.6193 20.8333 12.5 21.5795 12.5 22.5C12.5 23.4205 13.6193 24.1667 15 24.1667Z" fill="#E75A70"/>
</g>
<defs>
<clipPath id="clip0_1650_120">
<rect width="30" height="30" fill="white"/>
</clipPath>
</defs>
</svg>
