<svg width="25" height="25" viewBox="0 0 25 25" fill="none" xmlns="http://www.w3.org/2000/svg">
<path d="M3.41666 2.3125C3.34514 2.23574 3.25889 2.17418 3.16306 2.13148C3.06722 2.08878 2.96377 2.06582 2.85887 2.06396C2.75398 2.06211 2.64978 2.08141 2.5525 2.1207C2.45522 2.16 2.36685 2.21848 2.29267 2.29267C2.21848 2.36685 2.16 2.45522 2.1207 2.5525C2.08141 2.64978 2.06211 2.75398 2.06396 2.85887C2.06582 2.96377 2.08878 3.06722 2.13148 3.16306C2.17418 3.25889 2.23574 3.34514 2.3125 3.41666L4.60729 5.71146C1.07291 9.8052 1.24896 15.9948 5.13437 19.8802C5.32983 20.0755 5.59488 20.1852 5.8712 20.1851C6.14752 20.185 6.41249 20.0751 6.60781 19.8797C6.80313 19.6842 6.91281 19.4192 6.91271 19.1429C6.91261 18.8665 6.80275 18.6016 6.60729 18.4062C5.13889 16.9375 4.27153 14.9736 4.175 12.8989C4.07847 10.8243 4.75973 8.78833 6.08541 7.18958L7.66875 8.77291C6.76914 9.96058 6.32978 11.4337 6.43183 12.9201C6.53389 14.4065 7.17047 15.8058 8.22396 16.8594C8.41941 17.0548 8.68451 17.1646 8.96093 17.1646C9.23736 17.1646 9.50245 17.0548 9.69791 16.8594C9.89337 16.6639 10.0032 16.3988 10.0032 16.1224C10.0032 15.846 9.89337 15.5809 9.69791 15.3854C9.03561 14.7229 8.62109 13.853 8.5238 12.9213C8.42652 11.9896 8.65238 11.0527 9.16354 10.2677L11.075 12.1802C11.0135 12.4118 11.0059 12.6545 11.0529 12.8894C11.0999 13.1244 11.2003 13.3455 11.3462 13.5356C11.4921 13.7257 11.6797 13.8798 11.8946 13.9859C12.1094 14.0921 12.3458 14.1475 12.5854 14.1479C12.725 14.1479 12.8604 14.1292 12.9896 14.0948L21.5833 22.6885C21.6554 22.7631 21.7417 22.8226 21.837 22.8635C21.9323 22.9044 22.0349 22.9259 22.1386 22.9268C22.2423 22.9276 22.3452 22.9078 22.4412 22.8685C22.5372 22.8291 22.6244 22.7711 22.6977 22.6977C22.771 22.6243 22.829 22.5371 22.8682 22.441C22.9075 22.345 22.9272 22.2421 22.9262 22.1384C22.9253 22.0346 22.9037 21.9321 22.8627 21.8368C22.8217 21.7415 22.7621 21.6554 22.6875 21.5833L3.41666 2.3125ZM19.8208 16.5062L21.3437 18.0292C23.8583 14.0073 23.3667 8.64166 19.8698 5.14375C19.773 5.04697 19.6581 4.97019 19.5317 4.91782C19.4052 4.86544 19.2697 4.83848 19.1328 4.83848C18.9959 4.83848 18.8604 4.86544 18.734 4.91782C18.6075 4.97019 18.4926 5.04697 18.3958 5.14375C18.299 5.24053 18.2223 5.35542 18.1699 5.48188C18.1175 5.60833 18.0906 5.74386 18.0906 5.88073C18.0906 6.0176 18.1175 6.15313 18.1699 6.27958C18.2223 6.40603 18.299 6.52092 18.3958 6.61771C19.6692 7.89114 20.4961 9.54254 20.753 11.325C21.0098 13.1074 20.6828 14.9251 19.8208 16.5062ZM16.5937 13.2792L18.251 14.9365C18.7386 13.8026 18.8748 12.5487 18.6421 11.3366C18.4095 10.1246 17.8186 9.01017 16.9458 8.1375C16.8497 8.03801 16.7348 7.95865 16.6077 7.90406C16.4806 7.84947 16.3439 7.82073 16.2056 7.81953C16.0673 7.81833 15.9301 7.84468 15.8021 7.89706C15.6741 7.94943 15.5578 8.02678 15.46 8.12459C15.3622 8.22239 15.2849 8.33869 15.2325 8.46671C15.1801 8.59473 15.1537 8.73189 15.1549 8.87021C15.1561 9.00852 15.1849 9.14521 15.2395 9.27229C15.2941 9.39938 15.3734 9.51432 15.4729 9.61041C15.9462 10.0832 16.2959 10.6651 16.4914 11.3049C16.6868 11.9446 16.722 12.6226 16.5937 13.2792Z" fill="white"/>
</svg>
