<svg width="23" height="15" viewBox="0 0 23 15" fill="none" xmlns="http://www.w3.org/2000/svg">
<path d="M22.351 6.90644C19.9047 2.31212 16.207 0 11.25 0C6.29042 0 2.59525 2.31212 0.149007 6.90874C0.0508877 7.09398 0 7.29629 0 7.50115C0 7.70601 0.0508877 7.90832 0.149007 8.09356C2.59525 12.6879 6.293 15 11.25 15C16.2096 15 19.9047 12.6879 22.351 8.09126C22.5497 7.71856 22.5497 7.28604 22.351 6.90644ZM11.25 13.3436C7.08777 13.3436 4.04029 11.4617 1.89079 7.5C4.04029 3.53834 7.08777 1.65644 11.25 1.65644C15.4122 1.65644 18.4597 3.53834 20.6092 7.5C18.4623 11.4617 15.4148 13.3436 11.25 13.3436ZM11.1468 3.45092C8.6386 3.45092 6.60523 5.2638 6.60523 7.5C6.60523 9.7362 8.6386 11.5491 11.1468 11.5491C13.6549 11.5491 15.6883 9.7362 15.6883 7.5C15.6883 5.2638 13.6549 3.45092 11.1468 3.45092ZM11.1468 10.0767C9.54949 10.0767 8.2567 8.92408 8.2567 7.5C8.2567 6.07592 9.54949 4.92331 11.1468 4.92331C12.7441 4.92331 14.0369 6.07592 14.0369 7.5C14.0369 8.92408 12.7441 10.0767 11.1468 10.0767Z" fill="white"/>
</svg>
