<svg width="40" height="40" viewBox="0 0 40 40" fill="none" xmlns="http://www.w3.org/2000/svg">
<path d="M26.25 16.3281H5.625C4.93359 16.3281 4.375 16.8867 4.375 17.5781V33.75C4.375 34.4414 4.93359 35 5.625 35H26.25C26.9414 35 27.5 34.4414 27.5 33.75V17.5781C27.5 16.8867 26.9414 16.3281 26.25 16.3281ZM24.5312 32.0312H7.34375V19.2969H24.5312V32.0312Z" fill="#222222"/>
<path d="M32.0039 12.8321C28.9258 8.89852 24.3477 6.83212 19.7148 6.80868L19.707 4.30868C19.707 4.05477 19.4102 3.91415 19.2148 4.0704L14.2148 8.01571C14.0586 8.1368 14.0625 8.37118 14.2148 8.49618L19.2188 12.4454C19.418 12.6016 19.7148 12.461 19.7109 12.2071V9.71102C20.2148 9.71493 20.7227 9.74618 21.2266 9.80868C22.8711 10.0118 24.4336 10.5196 25.875 11.3204C27.3633 12.1485 28.6563 13.2618 29.7188 14.6134C30.7773 15.9688 31.543 17.4923 31.9883 19.1368C32.418 20.7266 32.5352 22.3673 32.3359 24.0118C32.3086 24.2227 32.2813 24.4337 32.2422 24.6407H35.168C35.7461 20.5938 34.7266 16.3204 32.0039 12.8321Z" fill="#222222"/>
</svg>