<svg width="16" height="16" viewBox="0 0 16 16" fill="none" xmlns="http://www.w3.org/2000/svg">
<path d="M2.16667 15.5C1.70833 15.5 1.31583 15.3369 0.989167 15.0108C0.663055 14.6842 0.5 14.2917 0.5 13.8333V2.16667C0.5 1.70833 0.663055 1.31583 0.989167 0.989167C1.31583 0.663055 1.70833 0.5 2.16667 0.5H9.66667V2.16667H2.16667V13.8333H13.8333V6.33333H15.5V13.8333C15.5 14.2917 15.3369 14.6842 15.0108 15.0108C14.6842 15.3369 14.2917 15.5 13.8333 15.5H2.16667ZM12.1667 5.5V3.83333H10.5V2.16667H12.1667V0.5H13.8333V2.16667H15.5V3.83333H13.8333V5.5H12.1667ZM3 12.1667H13L9.875 8L7.375 11.3333L5.5 8.83333L3 12.1667Z" fill="black"/>
</svg>