<svg width="40" height="35" viewBox="0 0 40 35" fill="none" xmlns="http://www.w3.org/2000/svg">
<path d="M18.125 28.1458L7.12496 18.5208C6.95829 18.375 6.83996 18.217 6.76996 18.0469C6.70107 17.8767 6.66663 17.6944 6.66663 17.5C6.66663 17.3055 6.70107 17.1232 6.76996 16.9531C6.83996 16.783 6.95829 16.625 7.12496 16.4791L18.125 6.85414C18.4305 6.58678 18.8122 6.44678 19.27 6.43414C19.7288 6.42248 20.125 6.56248 20.4583 6.85414C20.7916 7.12151 20.9655 7.45546 20.98 7.85602C20.9933 8.25755 20.8333 8.60414 20.5 8.89581L12.3333 16.0416H30.9583C31.4305 16.0416 31.8266 16.1812 32.1466 16.4602C32.4655 16.7402 32.625 17.0868 32.625 17.5C32.625 17.9132 32.4655 18.2593 32.1466 18.5383C31.8266 18.8183 31.4305 18.9583 30.9583 18.9583H12.3333L20.5 26.1041C20.8055 26.3715 20.9655 26.7118 20.98 27.125C20.9933 27.5382 20.8333 27.8784 20.5 28.1458C20.1944 28.4375 19.8055 28.5833 19.3333 28.5833C18.8611 28.5833 18.4583 28.4375 18.125 28.1458Z" fill="black" fill-opacity="0.25"/>
</svg>