<svg width="27" height="23" viewBox="0 0 27 23" fill="none" xmlns="http://www.w3.org/2000/svg">
<path d="M12.125 22.1458L1.12496 12.5208C0.958293 12.375 0.839959 12.217 0.769959 12.0469C0.70107 11.8767 0.666626 11.6944 0.666626 11.5C0.666626 11.3055 0.70107 11.1232 0.769959 10.9531C0.839959 10.783 0.958293 10.625 1.12496 10.4791L12.125 0.854144C12.4305 0.586783 12.8122 0.446784 13.27 0.434145C13.7288 0.422478 14.125 0.562478 14.4583 0.854144C14.7916 1.12151 14.9655 1.45546 14.98 1.85602C14.9933 2.25755 14.8333 2.60414 14.5 2.89581L6.33329 10.0416H24.9583C25.4305 10.0416 25.8266 10.1812 26.1466 10.4602C26.4655 10.7402 26.625 11.0868 26.625 11.5C26.625 11.9132 26.4655 12.2593 26.1466 12.5383C25.8266 12.8183 25.4305 12.9583 24.9583 12.9583H6.33329L14.5 20.1041C14.8055 20.3715 14.9655 20.7118 14.98 21.125C14.9933 21.5382 14.8333 21.8784 14.5 22.1458C14.1944 22.4375 13.8055 22.5833 13.3333 22.5833C12.8611 22.5833 12.4583 22.4375 12.125 22.1458Z" fill="black" fill-opacity="0.25"/>
</svg>