<svg width="30" height="30" viewBox="0 0 30 30" fill="none" xmlns="http://www.w3.org/2000/svg">
<path d="M22.875 7.1375C22.7593 7.02163 22.622 6.92969 22.4708 6.86696C22.3195 6.80424 22.1574 6.77195 21.9937 6.77195C21.83 6.77195 21.6679 6.80424 21.5167 6.86696C21.3655 6.92969 21.2281 7.02163 21.1125 7.1375L15 13.2375L8.88747 7.125C8.77175 7.00928 8.63436 6.91748 8.48315 6.85485C8.33195 6.79221 8.16989 6.75998 8.00622 6.75998C7.84256 6.75998 7.6805 6.79221 7.5293 6.85485C7.37809 6.91748 7.2407 7.00928 7.12497 7.125C7.00925 7.24073 6.91745 7.37812 6.85482 7.52933C6.79218 7.68053 6.75995 7.84259 6.75995 8.00626C6.75995 8.16992 6.79218 8.33198 6.85482 8.48318C6.91745 8.63439 7.00925 8.77178 7.12497 8.8875L13.2375 15L7.12497 21.1125C7.00925 21.2282 6.91745 21.3656 6.85482 21.5168C6.79218 21.668 6.75995 21.8301 6.75995 21.9938C6.75995 22.1574 6.79218 22.3195 6.85482 22.4707C6.91745 22.6219 7.00925 22.7593 7.12497 22.875C7.2407 22.9907 7.37809 23.0825 7.5293 23.1452C7.6805 23.2078 7.84256 23.24 8.00622 23.24C8.16989 23.24 8.33195 23.2078 8.48315 23.1452C8.63436 23.0825 8.77175 22.9907 8.88747 22.875L15 16.7625L21.1125 22.875C21.2282 22.9907 21.3656 23.0825 21.5168 23.1452C21.668 23.2078 21.8301 23.24 21.9937 23.24C22.1574 23.24 22.3194 23.2078 22.4707 23.1452C22.6219 23.0825 22.7592 22.9907 22.875 22.875C22.9907 22.7593 23.0825 22.6219 23.1451 22.4707C23.2078 22.3195 23.24 22.1574 23.24 21.9938C23.24 21.8301 23.2078 21.668 23.1451 21.5168C23.0825 21.3656 22.9907 21.2282 22.875 21.1125L16.7625 15L22.875 8.8875C23.35 8.4125 23.35 7.6125 22.875 7.1375Z" fill="black" fill-opacity="0.2"/>
</svg>