<svg width="30" height="30" viewBox="0 0 35 35" fill="none" xmlns="http://www.w3.org/2000/svg">
<path d="M9.47925 9.06504V5.69629C9.47944 5.15242 9.69563 4.63089 10.0803 4.24638C10.4649 3.86188 10.9865 3.64587 11.5304 3.64587H29.3031C29.8471 3.64587 30.3688 3.86198 30.7535 4.24664C31.1381 4.63131 31.3542 5.15302 31.3542 5.69702V23.4705C31.3541 24.0142 31.138 24.5356 30.7535 24.9201C30.369 25.3046 29.8476 25.5207 29.3038 25.5209H25.8972" stroke="white" stroke-width="2.91667" stroke-linecap="round" stroke-linejoin="round"/>
<path d="M23.4705 9.47925H5.69556C5.15182 9.47963 4.63047 9.69591 4.24612 10.0805C3.86178 10.4652 3.64587 10.9866 3.64587 11.5304V29.3031C3.64587 29.8471 3.86198 30.3688 4.24664 30.7535C4.63131 31.1381 5.15302 31.3542 5.69702 31.3542H23.4705C24.0142 31.3541 24.5356 31.138 24.9201 30.7535C25.3046 30.369 25.5207 29.8476 25.5209 29.3038V11.5289C25.5205 10.9853 25.3043 10.4641 24.9199 10.0798C24.5354 9.69543 24.0141 9.47944 23.4705 9.47925Z" stroke="white" stroke-width="2.91667" stroke-linejoin="round"/>
</svg>
