<svg width="16" height="16" viewBox="0 0 16 16" fill="none" xmlns="http://www.w3.org/2000/svg">
<path d="M2.16667 13.8333H3.33333L10.5208 6.64579L9.35417 5.47913L2.16667 12.6666V13.8333ZM14.0833 5.43746L10.5417 1.93746L11.7083 0.770793C12.0278 0.451348 12.4203 0.291626 12.8858 0.291626C13.3508 0.291626 13.7431 0.451348 14.0625 0.770793L15.2292 1.93746C15.5486 2.2569 15.7153 2.64246 15.7292 3.09413C15.7431 3.54524 15.5903 3.93051 15.2708 4.24996L14.0833 5.43746ZM1.33333 15.5C1.09722 15.5 0.899445 15.42 0.74 15.26C0.58 15.1005 0.5 14.9027 0.5 14.6666V12.3125C0.5 12.2013 0.520833 12.0938 0.5625 11.99C0.604167 11.8855 0.666667 11.7916 0.75 11.7083L9.33333 3.12496L12.875 6.66663L4.29167 15.25C4.20833 15.3333 4.11472 15.3958 4.01083 15.4375C3.90639 15.4791 3.79861 15.5 3.6875 15.5H1.33333ZM9.9375 6.06246L9.35417 5.47913L10.5208 6.64579L9.9375 6.06246Z" fill="black"/>
</svg>