<svg width="150" height="150" viewBox="0 0 150 150" fill="none" xmlns="http://www.w3.org/2000/svg">
<path d="M62.5 56.25H62.5625M87.5 56.25H87.5625M75 18.75C86.6032 18.75 97.7312 23.3594 105.936 31.5641C114.141 39.7688 118.75 50.8968 118.75 62.5V68.75H125C128.315 68.75 131.495 70.067 133.839 72.4112C136.183 74.7554 137.5 77.9348 137.5 81.25C137.5 84.5652 136.183 87.7446 133.839 90.0889C131.495 92.4331 128.315 93.75 125 93.75H118.75V112.5L131.25 131.25H68.75C59.0433 131.257 49.7121 127.5 42.7186 120.768C35.725 114.037 31.614 104.856 31.25 95.1563V93.7438H25C21.6848 93.7438 18.5054 92.4268 16.1612 90.0826C13.817 87.7384 12.5 84.559 12.5 81.2438C12.5 77.9286 13.817 74.7491 16.1612 72.4049C18.5054 70.0607 21.6848 68.7438 25 68.7438H31.25V62.4938C31.25 50.8906 35.8594 39.7626 44.0641 31.5579C52.2688 23.3531 63.3968 18.75 75 18.75Z" stroke="#699BF7" stroke-width="12.5" stroke-linecap="round" stroke-linejoin="round"/>
<path d="M68.75 87.5H81.25C81.25 85.8424 80.5915 84.2527 79.4194 83.0806C78.2473 81.9085 76.6576 81.25 75 81.25C73.3424 81.25 71.7527 81.9085 70.5806 83.0806C69.4085 84.2527 68.75 85.8424 68.75 87.5Z" stroke="#699BF7" stroke-width="12.5" stroke-linecap="round" stroke-linejoin="round"/>
</svg>
