<svg width="51" height="51" viewBox="0 0 51 51" fill="none" xmlns="http://www.w3.org/2000/svg">
<path d="M5.88887 50.6666C4.36109 50.6666 3.05276 50.1231 1.96387 49.0361C0.876831 47.9472 0.333313 46.6388 0.333313 45.1111V6.22218C0.333313 4.6944 0.876831 3.38607 1.96387 2.29718C3.05276 1.21014 4.36109 0.666626 5.88887 0.666626H30.8889V6.22218H5.88887V45.1111H44.7778V20.1111H50.3333V45.1111C50.3333 46.6388 49.7898 47.9472 48.7028 49.0361C47.6139 50.1231 46.3055 50.6666 44.7778 50.6666H5.88887ZM39.2222 17.3333V11.7777H33.6666V6.22218H39.2222V0.666626H44.7778V6.22218H50.3333V11.7777H44.7778V17.3333H39.2222ZM8.66665 39.5555H42L31.5833 25.6666L23.25 36.7777L17 28.4444L8.66665 39.5555Z" fill="white"/>
</svg>