<svg width="60" height="60" viewBox="0 0 60 60" fill="none" xmlns="http://www.w3.org/2000/svg">
<path d="M30 7.5C42.4265 7.5 52.5 17.5736 52.5 30C52.5 42.4265 42.4265 52.5 30 52.5C17.5736 52.5 7.5 42.4265 7.5 30C7.5 17.5736 17.5736 7.5 30 7.5Z" stroke="#699BF7" stroke-opacity="0.3" stroke-width="5" stroke-linecap="round"/>
<path d="M30 7.5C42.4265 7.5 52.5 17.5736 52.5 30" stroke="#699BF7" stroke-width="5" stroke-linecap="round"/>
<path d="M3 0.75C4.24265 0.75 5.25 1.75736 5.25 3C5.25 4.24265 4.24265 5.25 3 5.25C1.75736 5.25 0.75 4.24265 0.75 3C0.75 1.75736 1.75736 0.75 3 0.75Z" stroke="#699BF7" stroke-opacity="0.3" stroke-width="0.5" stroke-linecap="round"/>
<path d="M3 0.75C4.24265 0.75 5.25 1.75736 5.25 3" stroke="#699BF7" stroke-width="0.5" stroke-linecap="round"/>
<path d="M30 7.5C42.4265 7.5 52.5 17.5736 52.5 30C52.5 42.4265 42.4265 52.5 30 52.5C17.5736 52.5 7.5 42.4265 7.5 30C7.5 17.5736 17.5736 7.5 30 7.5Z" stroke="#699BF7" stroke-opacity="0.3" stroke-width="5" stroke-linecap="round"/>
<path d="M30 7.5C42.4265 7.5 52.5 17.5736 52.5 30" stroke="#699BF7" stroke-width="5" stroke-linecap="round"/>
</svg>
