<svg width="30" height="30" viewBox="0 0 30 30" fill="none" xmlns="http://www.w3.org/2000/svg">
<path d="M26.25 3.75C26.9125 3.75 27.55 4.0125 28.0125 4.4875C28.4875 4.95 28.75 5.5875 28.75 6.25V18.75C28.75 19.4125 28.4875 20.05 28.0125 20.5125C27.55 20.9875 26.9125 21.25 26.25 21.25H8.75C8.0875 21.25 7.45 20.9875 6.9875 20.5125C6.5125 20.05 6.25 19.4125 6.25 18.75V6.25C6.25 5.5875 6.5125 4.95 6.9875 4.4875C7.45 4.0125 8.0875 3.75 8.75 3.75H26.25ZM3.75 23.75H22.5V26.25H3.75C3.0875 26.25 2.45 25.9875 1.9875 25.5125C1.5125 25.05 1.25 24.4125 1.25 23.75V10H3.75V23.75Z" fill="#F8F8F8"/>
</svg>