<svg width="35" height="35" viewBox="0 0 35 35" fill="none" xmlns="http://www.w3.org/2000/svg">
<path d="M17.5002 29.1667C16.6981 29.1667 16.0117 28.8814 15.441 28.3107C14.8693 27.739 14.5835 27.0521 14.5835 26.25C14.5835 25.448 14.8693 24.7611 15.441 24.1894C16.0117 23.6187 16.6981 23.3334 17.5002 23.3334C18.3022 23.3334 18.9891 23.6187 19.5608 24.1894C20.1315 24.7611 20.4168 25.448 20.4168 26.25C20.4168 27.0521 20.1315 27.739 19.5608 28.3107C18.9891 28.8814 18.3022 29.1667 17.5002 29.1667ZM17.5002 20.4167C16.6981 20.4167 16.0117 20.1309 15.441 19.5592C14.8693 18.9885 14.5835 18.3021 14.5835 17.5C14.5835 16.698 14.8693 16.0111 15.441 15.4394C16.0117 14.8687 16.6981 14.5834 17.5002 14.5834C18.3022 14.5834 18.9891 14.8687 19.5608 15.4394C20.1315 16.0111 20.4168 16.698 20.4168 17.5C20.4168 18.3021 20.1315 18.9885 19.5608 19.5592C18.9891 20.1309 18.3022 20.4167 17.5002 20.4167ZM17.5002 11.6667C16.6981 11.6667 16.0117 11.3809 15.441 10.8092C14.8693 10.2385 14.5835 9.55212 14.5835 8.75004C14.5835 7.94796 14.8693 7.26157 15.441 6.69087C16.0117 6.11921 16.6981 5.83337 17.5002 5.83337C18.3022 5.83337 18.9891 6.11921 19.5608 6.69087C20.1315 7.26157 20.4168 7.94796 20.4168 8.75004C20.4168 9.55212 20.1315 10.2385 19.5608 10.8092C18.9891 11.3809 18.3022 11.6667 17.5002 11.6667Z" fill="#777777"/>
</svg>
