<svg width="10" height="10" viewBox="0 0 10 10" fill="none" xmlns="http://www.w3.org/2000/svg">
<path d="M4.99609 0.980469C5.30208 0.980469 5.5332 1.00326 5.68945 1.04883C5.8457 1.08789 5.94987 1.14974 6.00195 1.23438C6.06055 1.31901 6.08984 1.43945 6.08984 1.5957V4.21289H8.7168C8.87305 4.21289 8.99349 4.24219 9.07812 4.30078C9.16276 4.35938 9.22461 4.4668 9.26367 4.62305C9.30924 4.7793 9.33203 5.01042 9.33203 5.31641C9.33203 5.6224 9.30924 5.85352 9.26367 6.00977C9.22461 6.16602 9.16276 6.27344 9.07812 6.33203C8.99349 6.38411 8.87305 6.41016 8.7168 6.41016H6.08984V9.03711C6.08984 9.19336 6.06055 9.3138 6.00195 9.39844C5.94987 9.48307 5.8457 9.54818 5.68945 9.59375C5.5332 9.63281 5.30208 9.65234 4.99609 9.65234C4.6901 9.65234 4.45898 9.63281 4.30273 9.59375C4.14648 9.54818 4.03906 9.48307 3.98047 9.39844C3.92188 9.3138 3.89258 9.19336 3.89258 9.03711V6.41016H1.27539C1.11914 6.41016 0.998698 6.38411 0.914062 6.33203C0.829427 6.27344 0.764323 6.16602 0.71875 6.00977C0.679688 5.85352 0.660156 5.6224 0.660156 5.31641C0.660156 5.01042 0.679688 4.7793 0.71875 4.62305C0.764323 4.4668 0.829427 4.35938 0.914062 4.30078C0.998698 4.24219 1.11914 4.21289 1.27539 4.21289H3.89258V1.5957C3.89258 1.43945 3.92188 1.31901 3.98047 1.23438C4.03906 1.14974 4.14648 1.08789 4.30273 1.04883C4.45898 1.00326 4.6901 0.980469 4.99609 0.980469Z" fill="white"/>
</svg>