<svg width="24" height="24" viewBox="0 0 24 24" fill="none" xmlns="http://www.w3.org/2000/svg">
<path fill-rule="evenodd" clip-rule="evenodd" d="M3.24999 9.5C3.24999 7.8424 3.90847 6.25269 5.08057 5.08058C6.25267 3.90848 7.84238 3.25 9.49999 3.25C11.1576 3.25 12.7473 3.90848 13.9194 5.08058C15.0915 6.25269 15.75 7.8424 15.75 9.5C15.75 11.1576 15.0915 12.7473 13.9194 13.9194C12.7473 15.0915 11.1576 15.75 9.49999 15.75C7.84238 15.75 6.25267 15.0915 5.08057 13.9194C3.90847 12.7473 3.24999 11.1576 3.24999 9.5ZM9.49999 0.75C8.11406 0.750003 6.74796 1.07922 5.51418 1.71054C4.28039 2.34186 3.21422 3.25723 2.40345 4.38126C1.59269 5.50529 1.06053 6.80583 0.850782 8.1758C0.64104 9.54576 0.75972 10.9459 1.19705 12.2611C1.63438 13.5762 2.37785 14.7686 3.36623 15.7401C4.35461 16.7117 5.55964 17.4345 6.88208 17.8492C8.20452 18.2638 9.60655 18.3584 10.9727 18.1252C12.3389 17.8919 13.6301 17.3375 14.74 16.5075L21.115 22.8838C21.3494 23.1183 21.6673 23.2501 21.9989 23.2503C22.3305 23.2504 22.6486 23.1188 22.8831 22.8844C23.1177 22.65 23.2495 22.332 23.2496 22.0004C23.2497 21.6689 23.1181 21.3508 22.8837 21.1162L16.5087 14.7413C17.4817 13.4406 18.0734 11.8949 18.2176 10.2771C18.3619 8.65927 18.053 7.03323 17.3255 5.58101C16.598 4.12879 15.4807 2.90772 14.0986 2.0545C12.7165 1.20128 11.1242 0.749593 9.49999 0.75Z" fill="#777777"/>
</svg>