<svg width="30" height="30" viewBox="0 0 30 30" fill="none" xmlns="http://www.w3.org/2000/svg">
<path d="M10.0013 5H20.0012V7.49625H22.5012V5C23.1641 5.00033 23.7996 5.26387 24.2682 5.73267C24.7368 6.20148 25 6.83718 25 7.5V22.5C25 23.1628 24.7368 23.7985 24.2682 24.2673C23.7996 24.7361 23.1641 24.9997 22.5012 25V22.4963H20.0012V25H10.0013V22.4963H7.50125V25C6.83821 25 6.20107 24.7366 5.73223 24.2678C5.26339 23.7989 5 23.163 5 22.5V7.5C5 6.83696 5.26339 6.20107 5.73223 5.73223C6.20107 5.26339 6.83696 5 7.5 5L7.50125 7.49625H10.0013V5ZM12.5 18.75L18.125 15L12.5 11.25V18.75ZM22.5012 19.9963V16.2463H20.0012V19.9963H22.5012ZM22.5012 13.7463V9.99625H20.0012V13.7463H22.5012ZM10.0013 19.9963V16.2463H7.50125V19.9963H10.0013ZM10.0013 13.7463V9.99625H7.50125V13.7463H10.0013Z" fill="#F8F8F8"/>
</svg>